<?xml version="1.0" encoding="UTF-8" standalone="no"?>
<!-- Created with Inkscape (http://www.inkscape.org/) -->

<svg
   xmlns:dc="http://purl.org/dc/elements/1.1/"
   xmlns:cc="http://creativecommons.org/ns#"
   xmlns:rdf="http://www.w3.org/1999/02/22-rdf-syntax-ns#"
   xmlns:svg="http://www.w3.org/2000/svg"
   xmlns="http://www.w3.org/2000/svg"
   xmlns:xlink="http://www.w3.org/1999/xlink"
   xmlns:sodipodi="http://sodipodi.sourceforge.net/DTD/sodipodi-0.dtd"
   xmlns:inkscape="http://www.inkscape.org/namespaces/inkscape"
   width="2000"
   height="200"
   viewBox="0 0 529.16666 52.916668"
   version="1.1"
   id="svg8"
   sodipodi:docname="monster4.svg"
   inkscape:version="0.92.3 (2405546, 2018-03-11)"
   inkscape:export-filename="/home/ebrahim/fictional-fortnight/monster4.png"
   inkscape:export-xdpi="96"
   inkscape:export-ydpi="96">
  <sodipodi:namedview
     inkscape:snap-object-midpoints="true"
     id="base"
     pagecolor="#ffffff"
     bordercolor="#666666"
     borderopacity="1.0"
     inkscape:pageopacity="0.0"
     inkscape:pageshadow="2"
     inkscape:zoom="2"
     inkscape:cx="156.17327"
     inkscape:cy="86.567333"
     inkscape:document-units="mm"
     inkscape:current-layer="layer1"
     showgrid="true"
     units="px"
     inkscape:window-width="1920"
     inkscape:window-height="1025"
     inkscape:window-x="0"
     inkscape:window-y="27"
     inkscape:window-maximized="1"
     inkscape:pagecheckerboard="false"
     inkscape:snap-global="false">
    <inkscape:grid
       type="xygrid"
       id="grid836"
       dotted="false"
       empspacing="5"
       spacingy="2.6458333"
       spacingx="2.6458333" />
  </sodipodi:namedview>
  <defs
     id="defs2">
    <linearGradient
       inkscape:collect="always"
       id="linearGradient2392">
      <stop
         style="stop-color:#ffff9e;stop-opacity:1"
         offset="0"
         id="stop2388" />
      <stop
         style="stop-color:#ffff49;stop-opacity:0.01960784"
         offset="1"
         id="stop2390" />
    </linearGradient>
    <linearGradient
       id="linearGradient1478"
       inkscape:collect="always">
      <stop
         id="stop1474"
         offset="0"
         style="stop-color:#ffff78;stop-opacity:1" />
      <stop
         id="stop1476"
         offset="1"
         style="stop-color:#ffff49;stop-opacity:0.01960784" />
    </linearGradient>
    <linearGradient
       inkscape:collect="always"
       id="linearGradient1326">
      <stop
         style="stop-color:#ffff78;stop-opacity:1"
         offset="0"
         id="stop1322" />
      <stop
         style="stop-color:#ffff00;stop-opacity:0.01960784"
         offset="1"
         id="stop1324" />
    </linearGradient>
    <linearGradient
       id="linearGradient1098"
       inkscape:collect="always">
      <stop
         id="stop1094"
         offset="0"
         style="stop-color:#ffff42;stop-opacity:1" />
      <stop
         id="stop1096"
         offset="1"
         style="stop-color:#ffff00;stop-opacity:0.01960784" />
    </linearGradient>
    <linearGradient
       inkscape:collect="always"
       id="linearGradient1068">
      <stop
         style="stop-color:#ffff00;stop-opacity:1"
         offset="0"
         id="stop1064" />
      <stop
         style="stop-color:#ffff00;stop-opacity:0"
         offset="1"
         id="stop1066" />
    </linearGradient>
    <linearGradient
       inkscape:collect="always"
       id="linearGradient866">
      <stop
         style="stop-color:#ffff00;stop-opacity:1"
         offset="0"
         id="stop862" />
      <stop
         style="stop-color:#b2b200;stop-opacity:1"
         offset="1"
         id="stop864" />
    </linearGradient>
    <radialGradient
       inkscape:collect="always"
       xlink:href="#linearGradient866"
       id="radialGradient868"
       cx="26.458332"
       cy="270.54166"
       fx="26.458332"
       fy="270.54166"
       r="2.6458333"
       gradientUnits="userSpaceOnUse"
       gradientTransform="matrix(0.5,0,0,0.5,13.229166,135.27083)" />
    <radialGradient
       inkscape:collect="always"
       xlink:href="#linearGradient866"
       id="radialGradient834"
       gradientUnits="userSpaceOnUse"
       cx="26.458332"
       cy="270.54166"
       fx="26.458332"
       fy="270.54166"
       r="2.6458333"
       gradientTransform="matrix(0.5,0,0,0.5,66.145833,135.27083)" />
    <radialGradient
       r="2.6458333"
       fy="270.54166"
       fx="26.458332"
       cy="270.54166"
       cx="26.458332"
       gradientTransform="matrix(0.5,0,0,0.5,119.0625,135.27083)"
       gradientUnits="userSpaceOnUse"
       id="radialGradient874"
       xlink:href="#linearGradient866"
       inkscape:collect="always" />
    <radialGradient
       r="2.6458333"
       fy="270.54166"
       fx="26.458332"
       cy="270.54166"
       cx="26.458332"
       gradientTransform="matrix(0.5,0,0,0.5,171.97917,135.27083)"
       gradientUnits="userSpaceOnUse"
       id="radialGradient978"
       xlink:href="#linearGradient866"
       inkscape:collect="always" />
    <radialGradient
       inkscape:collect="always"
       xlink:href="#linearGradient866"
       id="radialGradient1034"
       gradientUnits="userSpaceOnUse"
       gradientTransform="matrix(0.5,0,0,0.5,224.89583,135.27083)"
       cx="26.458332"
       cy="270.54166"
       fx="26.458332"
       fy="270.54166"
       r="2.6458333" />
    <radialGradient
       inkscape:collect="always"
       xlink:href="#linearGradient866"
       id="radialGradient1044"
       gradientUnits="userSpaceOnUse"
       cx="26.458332"
       cy="270.54166"
       fx="26.458332"
       fy="270.54166"
       r="2.6458333"
       gradientTransform="translate(264.58333)" />
    <radialGradient
       inkscape:collect="always"
       xlink:href="#linearGradient866"
       id="radialGradient1056"
       gradientUnits="userSpaceOnUse"
       gradientTransform="matrix(1.0000003,0.1767767,-0.17407762,0.98473193,395.92459,-139.48384)"
       cx="26.458332"
       cy="270.54166"
       fx="26.458332"
       fy="270.54166"
       r="2.6458333" />
    <radialGradient
       inkscape:collect="always"
       xlink:href="#linearGradient866"
       id="radialGradient1058"
       gradientUnits="userSpaceOnUse"
       gradientTransform="matrix(0.96464493,0.07071068,-0.07310614,0.99732417,-402.30034,-297.33519)"
       cx="26.458332"
       cy="270.54166"
       fx="26.458332"
       fy="270.54166"
       r="2.6458333" />
    <radialGradient
       inkscape:collect="always"
       xlink:href="#linearGradient1068"
       id="radialGradient1070"
       cx="283.15872"
       cy="262.5289"
       fx="283.15872"
       fy="262.5289"
       r="10.617282"
       gradientTransform="matrix(0.63063065,0,0,0.61674016,112.4731,108.62954)"
       gradientUnits="userSpaceOnUse" />
    <radialGradient
       inkscape:collect="always"
       xlink:href="#linearGradient1098"
       id="radialGradient1088"
       gradientUnits="userSpaceOnUse"
       gradientTransform="matrix(1.2457497,0,0,1.2183103,-8.7865016,-49.300003)"
       cx="283.15872"
       cy="262.5289"
       fx="283.15872"
       fy="262.5289"
       r="10.617282" />
    <radialGradient
       inkscape:collect="always"
       xlink:href="#linearGradient866"
       id="radialGradient1090"
       gradientUnits="userSpaceOnUse"
       gradientTransform="matrix(0.48232247,0.03535534,-0.03655307,0.49866209,-441.04078,-126.03683)"
       cx="26.458332"
       cy="270.54166"
       fx="26.458332"
       fy="270.54166"
       r="2.6458333" />
    <radialGradient
       inkscape:collect="always"
       xlink:href="#linearGradient866"
       id="radialGradient1092"
       gradientUnits="userSpaceOnUse"
       gradientTransform="matrix(0.50000015,0.08838835,-0.08703881,0.49236596,433.81617,-22.744343)"
       cx="26.458332"
       cy="270.54166"
       fx="26.458332"
       fy="270.54166"
       r="2.6458333" />
    <radialGradient
       r="10.617282"
       fy="262.5289"
       fx="283.15872"
       cy="262.5289"
       cx="283.15872"
       gradientTransform="matrix(1.5324146,0,0,1.498661,-37.041487,-122.90017)"
       gradientUnits="userSpaceOnUse"
       id="radialGradient1316"
       xlink:href="#linearGradient1326"
       inkscape:collect="always" />
    <radialGradient
       r="2.6458333"
       fy="270.54166"
       fx="26.458332"
       cy="270.54166"
       cx="26.458332"
       gradientTransform="matrix(0.48232247,0.03535534,-0.03655307,0.49866209,-482.22998,-89.826752)"
       gradientUnits="userSpaceOnUse"
       id="radialGradient1318"
       xlink:href="#linearGradient866"
       inkscape:collect="always" />
    <radialGradient
       r="2.6458333"
       fy="270.54166"
       fx="26.458332"
       cy="270.54166"
       cx="26.458332"
       gradientTransform="matrix(0.50000015,0.08838835,-0.08703881,0.49236596,481.59137,-40.949851)"
       gradientUnits="userSpaceOnUse"
       id="radialGradient1320"
       xlink:href="#linearGradient866"
       inkscape:collect="always" />
    <radialGradient
       inkscape:collect="always"
       xlink:href="#linearGradient1478"
       id="radialGradient1462"
       gradientUnits="userSpaceOnUse"
       gradientTransform="matrix(1.7703001,0,0,1.7313067,-51.484159,-183.9764)"
       cx="283.15872"
       cy="262.5289"
       fx="283.15872"
       fy="262.5289"
       r="10.617282" />
    <radialGradient
       inkscape:collect="always"
       xlink:href="#linearGradient866"
       id="radialGradient1464"
       gradientUnits="userSpaceOnUse"
       gradientTransform="matrix(0.48232247,0.03535534,-0.03655307,0.49866209,-523.4587,-53.539636)"
       cx="26.458332"
       cy="270.54166"
       fx="26.458332"
       fy="270.54166"
       r="2.6458333" />
    <radialGradient
       inkscape:collect="always"
       xlink:href="#linearGradient866"
       id="radialGradient1466"
       gradientUnits="userSpaceOnUse"
       gradientTransform="matrix(0.50000015,0.08838835,-0.08703881,0.49236596,529.89002,-58.963053)"
       cx="26.458332"
       cy="270.54166"
       fx="26.458332"
       fy="270.54166"
       r="2.6458333" />
    <radialGradient
       r="10.617282"
       fy="262.5289"
       fx="283.15872"
       cy="262.5289"
       cx="283.15872"
       gradientTransform="matrix(1.9905644,0,0,1.9467193,-60.937248,-240.52846)"
       gradientUnits="userSpaceOnUse"
       id="radialGradient2220"
       xlink:href="#linearGradient2392"
       inkscape:collect="always" />
    <radialGradient
       r="2.6458333"
       fy="270.54166"
       fx="26.458332"
       cy="270.54166"
       cx="26.458332"
       gradientTransform="matrix(0.96464493,0.07071068,-0.07310614,0.99732417,-566.96917,-152.57361)"
       gradientUnits="userSpaceOnUse"
       id="radialGradient2222"
       xlink:href="#linearGradient866"
       inkscape:collect="always" />
    <radialGradient
       r="2.6458333"
       fy="270.54166"
       fx="26.458332"
       cy="270.54166"
       cx="26.458332"
       gradientTransform="matrix(1.0000003,0.1767767,-0.17407762,0.98473193,588.61314,-212.0747)"
       gradientUnits="userSpaceOnUse"
       id="radialGradient2224"
       xlink:href="#linearGradient866"
       inkscape:collect="always" />
    <radialGradient
       inkscape:collect="always"
       xlink:href="#linearGradient866"
       id="radialGradient2394"
       gradientUnits="userSpaceOnUse"
       gradientTransform="matrix(0.50000015,0.08838835,-0.08703881,0.49236596,385.64438,-4.2846375)"
       cx="26.458332"
       cy="270.54166"
       fx="26.458332"
       fy="270.54166"
       r="2.6458333" />
    <radialGradient
       inkscape:collect="always"
       xlink:href="#linearGradient866"
       id="radialGradient2396"
       gradientUnits="userSpaceOnUse"
       gradientTransform="matrix(0.48232247,0.03535534,-0.03655307,0.49866209,-399.48292,-161.83353)"
       cx="26.458332"
       cy="270.54166"
       fx="26.458332"
       fy="270.54166"
       r="2.6458333" />
  </defs>
  <metadata
     id="metadata5">
    <rdf:RDF>
      <cc:Work
         rdf:about="">
        <dc:format>image/svg+xml</dc:format>
        <dc:type
           rdf:resource="http://purl.org/dc/dcmitype/StillImage" />
        <dc:title></dc:title>
      </cc:Work>
    </rdf:RDF>
  </metadata>
  <g
     inkscape:label="Layer 1"
     inkscape:groupmode="layer"
     id="layer1"
     transform="translate(0,-244.08332)">
    <circle
       style="color:#000000;clip-rule:nonzero;display:inline;overflow:visible;visibility:visible;opacity:1;isolation:auto;mix-blend-mode:normal;color-interpolation:sRGB;color-interpolation-filters:linearRGB;solid-color:#000000;solid-opacity:1;vector-effect:none;fill:url(#radialGradient868);fill-opacity:1;fill-rule:evenodd;stroke:none;stroke-width:0.75406247;stroke-linecap:butt;stroke-linejoin:bevel;stroke-miterlimit:4;stroke-dasharray:none;stroke-dashoffset:0;stroke-opacity:1;paint-order:markers fill stroke;color-rendering:auto;image-rendering:auto;shape-rendering:auto;text-rendering:auto;enable-background:accumulate"
       id="path860"
       cx="26.458332"
       cy="270.54166"
       r="1.3229166" />
    <path
       style="fill:none;fill-rule:evenodd;stroke:#b8b800;stroke-width:0.26458332px;stroke-linecap:butt;stroke-linejoin:miter;stroke-opacity:1"
       d="m 23.812499,267.89582 c 0.147704,1.62956 0.147012,1.20426 -0.940909,1.92954 -0.04774,0.0318 -0.280633,0.10353 -0.280633,0.18709 0,0.0759 1.075759,0.14099 1.075759,0.51449 0,0.26784 -0.387587,0.81688 -0.608038,0.98221 -0.09741,0.0731 -0.366735,0.14776 -0.280633,0.23386 0.176897,0.1769 1.041177,-0.20948 1.169304,0.0468 0.07854,0.15708 -0.960517,1.56518 -0.795127,1.73057 0.09095,0.091 1.777566,0.0654 1.870887,0.0468 0.341154,-0.0682 1.048807,-0.4812 1.449937,-0.28063 0.05851,0.0292 0.04677,1.76192 0.04677,1.96443 0,0.2655 -0.07196,1.0326 0.04677,0.79513 0.192789,-0.38558 0.198781,-0.89802 0.327406,-1.30963 0.184282,-0.5897 0.603454,-1.1583 0.841899,-1.73056 0.07325,-0.17581 0.159792,-0.72367 0.374176,-0.79513 0.08033,-0.0268 0.152546,0.0158 0.18709,0.0935 0.247965,0.55792 0.558958,1.01266 0.935442,1.49671 0.208296,0.26781 0.06587,-0.0277 0.233863,0.14032 0.03975,0.0398 0.0684,0.19059 0.09354,0.14031 0.240914,-0.48182 -0.676008,-1.94726 -0.888672,-2.47892 -0.152194,-0.38049 1.435111,-0.23386 1.590254,-0.23386 0.0089,0 0.369941,-0.0149 0.327406,-0.0468 -0.529894,-0.39742 -2.476254,-0.41561 -2.619242,-0.70159 -0.138608,-0.27721 2.042014,-1.44113 2.338609,-1.68379 0.113835,-0.0931 0.378942,-0.39836 0.23386,-0.37418 -0.49621,0.0827 -1.024059,0.29892 -1.496708,0.46772 -0.329964,0.11784 -0.583144,0.21689 -0.561266,0.14032 0.09399,-0.32898 0.120714,-0.19466 0.23386,-0.42095 0.234051,-0.4681 -0.06248,0.0211 0.18709,-0.56127 0.179644,-0.41917 0.431577,-0.79257 0.608036,-1.21608 0.01699,-0.0408 0.280191,-0.46816 0.187089,-0.56126 -0.05468,-0.0547 -1.164182,1.45335 -1.309621,1.35639 -0.304427,-0.20295 -0.102732,-0.89326 -0.46772,-1.07576 -0.275021,-0.13751 -1.800145,1.53406 -2.057976,1.82412 -0.117186,0.13183 -0.271653,0.23064 -0.374177,0.37417 -0.05284,0.074 -0.06468,0.28429 -0.140317,0.23386 -0.177534,-0.11835 -0.686063,-1.77616 -0.935443,-1.63702 -0.212003,0.11828 -0.401714,0.27271 -0.602572,0.40907"
       id="path1168"
       inkscape:connector-curvature="0" />
    <path
       style="fill:none;fill-rule:evenodd;stroke:#f1f100;stroke-width:0.26499999;stroke-linecap:butt;stroke-linejoin:miter;stroke-miterlimit:4;stroke-dasharray:none;stroke-opacity:1"
       d="m 26.458333,270.54165 c -0.322501,0.21337 -0.626228,0.45827 -0.967502,0.6401 -0.165687,0.0883 -0.380752,-0.005 -0.561266,0.0468 -0.909511,0.25986 -1.843135,0.61605 -2.712786,0.98222 -0.274606,0.11562 -0.670561,0.30879 -0.935443,0.46772 -0.0856,0.0514 -0.323151,0.14244 -0.233861,0.18709 0.349296,0.17465 2.716106,-0.59175 3.133735,-0.74836 0.269175,-0.10094 0.735132,-0.454 0.841899,-0.18709 0.172922,0.43231 -0.07123,1.41902 0,1.91766 0.200931,1.40652 0.0029,-0.81293 0.140317,0.56127 0.002,0.0197 0.10943,0.49861 0.280633,0.3274 0.623012,-0.62301 0.790658,-1.69392 1.356393,-2.38538 0.07711,-0.0942 0.176218,-0.2965 0.280633,-0.23386 0.468546,0.28113 0.765628,1.74029 1.028986,2.24507 0.178118,0.34139 0.409927,0.65202 0.608039,0.98221 0.07921,0.13202 0.307703,0.70815 0.467723,0.65481 0.150262,-0.0501 0.0823,-0.61723 0.09354,-0.70158 0.08675,-0.65066 0.157337,-1.30104 0.04677,-1.96443 -0.05942,-0.35649 -0.140316,-0.66579 -0.140316,-1.02899 0,-0.0312 -0.01095,0.0643 0,0.0935 0.03338,0.089 0.284506,0.55524 0.327403,0.60804 0.301778,0.37141 0.871712,0.82827 1.309621,1.02898 0.03112,0.0143 1.475436,0.57832 1.543482,0.37418 0.495106,-1.48531 -2.355361,-2.35885 -2.525697,-3.04019 -0.115853,-0.46342 1.941563,-1.04237 2.33861,-1.21608 0.324622,-0.14202 0.689864,-0.22224 0.654809,-0.3274 -0.0028,-0.008 -1.960547,0.13934 -2.15152,0.18709 -0.138187,0.0345 -0.378706,0.23159 -0.561266,0.14031 -0.108408,-0.0542 0.01905,-2.98389 -0.09354,-3.04019 -0.413535,-0.20677 -1.478285,1.98286 -1.73057,1.73057 -0.283059,-0.28306 -1.475634,-2.47892 -1.496709,-2.47892 -0.292258,0 -1.001202,1.09223 -1.169305,1.35639 -0.03335,0.0524 -0.319233,0.48406 -0.327405,0.46772 -0.03399,-0.068 -0.457558,-1.96239 -0.841899,-1.44994 -0.129743,0.173 -0.12267,1.08576 -0.04677,1.26285 0.04585,0.107 0.238039,0.37836 0.327405,0.46772 0.04546,0.0455 0.251371,0.0468 0.187089,0.0468 -0.167315,0 -0.45588,0.0571 -0.608038,0 -0.06193,-0.0232 -0.08115,-0.11074 -0.140317,-0.14032 -0.160093,-0.0801 -0.368061,0.0371 -0.280633,0.23386 0.07493,0.1686 0.339982,0.36553 0.467722,0.46772 0.138808,0.11105 0.279743,0.21943 0.420949,0.32741 0.652879,0.49926 1.353899,0.91411 1.964431,1.44994 0.03539,0.31666 0.322268,0.17154 0.467723,0.28063 0.02789,0.0209 0.07429,0.11494 0.04677,0.0935 -0.279434,-0.21727 -0.539893,-0.45791 -0.809839,-0.68687"
       id="path1170"
       inkscape:connector-curvature="0" />
    <circle
       r="1.3229166"
       cy="270.54166"
       cx="79.375"
       id="circle828"
       style="color:#000000;clip-rule:nonzero;display:inline;overflow:visible;visibility:visible;opacity:1;isolation:auto;mix-blend-mode:normal;color-interpolation:sRGB;color-interpolation-filters:linearRGB;solid-color:#000000;solid-opacity:1;vector-effect:none;fill:url(#radialGradient834);fill-opacity:1;fill-rule:evenodd;stroke:none;stroke-width:0.75406247;stroke-linecap:butt;stroke-linejoin:bevel;stroke-miterlimit:4;stroke-dasharray:none;stroke-dashoffset:0;stroke-opacity:1;paint-order:markers fill stroke;color-rendering:auto;image-rendering:auto;shape-rendering:auto;text-rendering:auto;enable-background:accumulate" />
    <path
       inkscape:connector-curvature="0"
       id="path830"
       d="M76.9605762482 268.022102672C77.1082802482 269.651662672 77.384415886 268.924033128 76.296494886 269.649313128C76.248754886 269.681113128 76.4123131479 269.203147805 76.4123131479 269.286707805C76.4123131479 269.362607805 76.5511581431 270.817578498 76.5511581431 271.191078498C76.5511581431 271.458918498 75.6178678867 271.501715273 75.3974168867 271.667045273C75.3000068867 271.740145273 76.1303595029 271.271412473 76.2164615029 271.357512473C76.3933585029 271.534412473 77.3380956418 272.254126068 77.4662226418 272.510406068C77.5447626418 272.667486068 76.3950762967 272.388155637 76.5604662967 272.553545637C76.6514162967 272.644545637 77.1511216578 273.003971146 77.2444426578 272.985371146C77.5855966578 272.917171146 78.3553274818 273.690620608 78.7564574818 273.891190608C78.8149674818 273.920390608 79.653566833 275.83192604 79.653566833 276.03443604C79.653566833 276.29993604 79.2904471938 277.125710802 79.4091771938 276.888240802C79.6019661938 276.502660802 79.1336983506 274.540431004 79.2623233506 274.128821004C79.4466053506 273.539121004 79.7671263282 274.186657691 80.0055713282 273.614397691C80.0788213282 273.438587691 80.0966517069 271.46678544 80.3110357069 271.39532544C80.3913657069 271.36852544 81.8745060435 271.438338816 81.9090500435 271.516038816C82.1570150435 272.073958816 81.0379032444 274.282179453 81.4143872444 274.766229453C81.6226832444 275.034039453 82.0164880959 273.259349089 82.1844810959 273.427369089C82.2242310959 273.467169089 81.6037778105 273.476076868 81.6289178105 273.425796868C81.8698318105 272.943976868 82.2040964469 272.484320485 81.9914324469 271.952660485C81.8392384469 271.572170485 82.1340819238 272.068759087 82.2892249238 272.068759087C82.2981249238 272.068759087 82.756753578 270.39043463 82.714218578 270.35853463C82.184324578 269.96111463 81.4614448978 270.847230522 81.3184568978 270.561250522C81.1798488978 270.284040522 82.8418022543 270.00275332 83.1383972543 269.76009332C83.2522322543 269.66699332 83.3121447179 268.759458293 83.1670627179 268.783638293C82.6708527179 268.866338293 82.0154404196 268.285280954 81.5427914196 268.454080954C81.2128274196 268.571920954 81.5833898178 269.846907567 81.6052678178 269.770337567C81.6992578178 269.441357567 81.7799173945 268.693205106 81.8930633945 268.466915106C82.1271143945 267.998815106 81.3252597551 268.969318516 81.5748297551 268.386948516C81.7544737551 267.967778516 83.0214724287 268.326144079 83.1979314287 267.902634079C83.2149214287 267.861834079 82.0361478901 267.38435893 81.9430458901 267.29125893C81.8883658901 267.23655893 81.2209782831 268.146249815 81.0755392831 268.049289815C80.7711122831 267.846339815 81.9928093294 266.981505202 81.6278213294 266.799005202C81.3528003294 266.661495202 79.0941794455 267.739351166 78.8363484455 268.029411166C78.7191624455 268.161241166 78.5398993776 268.050398091 78.4373753776 268.193928091C78.3845353776 268.267928091 79.3223248336 268.26177808 79.2466878336 268.21134808C79.0691538336 268.09299808 77.3767471089 267.755479425 77.1273671089 267.894619425C76.9153641089 268.012899425 76.1885937988 267.975823225 75.9877357988 268.112183225"
       style="fill:none;fill-rule:evenodd;stroke:#b8b800;stroke-width:0.26458332px;stroke-linecap:butt;stroke-linejoin:miter;stroke-opacity:1" />
    <path
       inkscape:connector-curvature="0"
       id="path832"
       d="M78.862159983 270.13745018C78.539658983 270.35082018 77.8325785318 271.443041847 77.4913045318 271.624871847C77.3256175318 271.713171847 78.5141989654 270.734206189 78.3336849654 270.786006189C77.4241739654 271.045866189 76.1576266309 271.693771208 75.2879756309 272.059941208C75.0133696309 272.175561208 74.5497868362 271.895291519 74.2849048362 272.054221519C74.1993048362 272.105621519 74.7677037896 273.566509787 74.8569937896 273.611159787C75.2062897896 273.785809787 77.4608632998 272.581018036 77.8784922998 272.424408036C78.1476672998 272.323468036 78.2516465971 271.505860185 78.3584135971 271.772770185C78.5313355971 272.205080185 77.374681571 272.582260546 77.445911571 273.080900546C77.646842571 274.487420546 78.1961419582 273.568726713 78.3335589582 274.942926713C78.3355589582 274.962626713 77.3408026811 275.812239535 77.5120056811 275.641029535C78.1350176811 275.018019535 79.0811379097 272.639768796 79.6468729097 271.948308796C79.7239829097 271.854108796 80.6067480162 272.050919496 80.7111630162 272.113559496C81.1797090162 272.394689496 79.9422321083 273.924193377 80.2055901083 274.428973377C80.3837081083 274.770363377 81.8222988787 275.895930358 82.0204108787 276.226120358C82.0996208787 276.358140358 81.6839004253 276.581723182 81.8439204253 276.528383182C81.9941824253 276.478283182 81.3729522301 275.947700243 81.3841922301 275.863350243C81.4709422301 275.212690243 82.9924916633 273.593406423 82.8819246633 272.930016423C82.8225046633 272.573526423 81.7360099388 272.727130927 81.7360099388 272.363930927C81.7360099388 272.332730927 82.883467844 272.526092053 82.894417844 272.555292053C82.927797844 272.644292053 81.5501289919 273.506990217 81.5930259919 273.559790217C81.8948039919 273.931200217 82.7801313227 273.325573701 83.2180403227 273.526283701C83.2491603227 273.540583701 85.7512881797 274.776992789 85.8193341797 274.572852789C86.3144401797 273.087542789 81.9314962478 272.447243492 81.7611602478 271.765903492C81.6453072478 271.302483492 84.7379507074 270.402720342 85.1349977074 270.229010342C85.4596197074 270.086990342 85.7657477084 269.084300717 85.7306927084 268.979140717C85.7278927084 268.971140717 84.135450773 270.755393532 83.944477773 270.803143532C83.806290773 270.837643532 82.399531487 269.52201118 82.216971487 269.43073118C82.108563487 269.37653118 83.6284018277 266.75508475 83.5158118277 266.69878475C83.1022768277 266.49201475 80.8780069815 268.789520295 80.6257219815 268.537230295C80.3426629815 268.254170295 80.1655276593 265.970977299 80.1444526593 265.970977299C79.8521946593 265.970977299 78.9335006026 267.150684443 78.7653976026 267.414844443C78.7320476026 267.467244443 77.7387676521 267.841772184 77.7305956521 267.825432184C77.6966056521 267.757432184 78.6066176495 267.205580009 78.2222766495 267.718030009C78.0925336495 267.891030009 76.7196960533 268.361852143 76.7955960533 268.538942143C76.8414460533 268.645942143 78.3084798685 269.376596669 78.3978458685 269.465956669C78.4433058685 269.511456669 77.3232973741 268.427059873 77.2590153741 268.427059873C77.0917003741 268.427059873 77.7092486997 268.019964354 77.5570906997 267.962864354C77.4951606997 267.939664354 76.3891340691 268.396906625 76.3299670691 268.367326625C76.1698740691 268.287226625 77.1158347928 267.783393486 77.2032627928 267.980153486C77.2781927928 268.148753486 76.2313432361 269.709822925 76.3590832361 269.812012925C76.4978912361 269.923062925 77.1910267018 269.213914638 77.3322327018 269.321894638C77.9851117018 269.821154638 78.9924185871 270.906231026 79.6029505871 271.442061026C79.6383405871 271.758721026 79.5842473978 270.175217965 79.7297023978 270.284307965C79.7575923978 270.305207965 79.9343593451 271.743272085 79.9068393451 271.721832085C79.6274053451 271.504562085 78.7466769029 270.102522716 78.4767309029 269.873562716"
       style="fill:none;fill-rule:evenodd;stroke:#f1f100;stroke-width:0.26499999;stroke-linecap:butt;stroke-linejoin:miter;stroke-miterlimit:4;stroke-dasharray:none;stroke-opacity:1" />
    <circle
       style="color:#000000;clip-rule:nonzero;display:inline;overflow:visible;visibility:visible;opacity:1;isolation:auto;mix-blend-mode:normal;color-interpolation:sRGB;color-interpolation-filters:linearRGB;solid-color:#000000;solid-opacity:1;vector-effect:none;fill:url(#radialGradient874);fill-opacity:1;fill-rule:evenodd;stroke:none;stroke-width:0.75406247;stroke-linecap:butt;stroke-linejoin:bevel;stroke-miterlimit:4;stroke-dasharray:none;stroke-dashoffset:0;stroke-opacity:1;paint-order:markers fill stroke;color-rendering:auto;image-rendering:auto;shape-rendering:auto;text-rendering:auto;enable-background:accumulate"
       id="circle868"
       cx="132.29167"
       cy="270.54166"
       r="1.3229166" />
    <path
       sodipodi:nodetypes="cssscsccccscccccccccscccccccccsccccccc"
       style="fill:none;fill-rule:evenodd;stroke:#b8b800;stroke-width:0.26458332px;stroke-linecap:butt;stroke-linejoin:miter;stroke-opacity:1"
       d="m 129.00368,268.29036 c 0.14771,1.62956 1.85757,1.52516 0.76965,2.25044 -0.0477,0.0318 -0.44827,-0.83382 -0.44827,-0.75026 0,0.0759 -0.17995,1.25274 -0.17995,1.62624 0,0.26784 -0.69899,-0.82501 -0.91944,-0.65968 -0.0974,0.0731 0.50664,-0.15366 0.59274,-0.0676 0.1769,0.1769 1.19755,0.64832 1.32568,0.9046 0.0785,0.15708 -1.73731,0.30354 -1.57192,0.46889 0.091,0.091 2.4816,1.54812 2.57492,1.52952 0.34115,-0.0682 0.0999,0.009 0.50099,0.21001 0.0585,0.0292 1.91165,-1.07365 1.91165,-0.87114 0,0.2655 -2.03891,0.0483 -1.92018,-0.18918 0.19279,-0.38558 0.90116,1.88327 1.02978,1.47166 0.18428,-0.5897 -0.63902,0.72517 -0.40057,0.15295 0.0733,-0.17581 0.92705,-3.00026 1.14141,-3.07172 0.0803,-0.0268 0.53263,-0.24708 0.56718,-0.16937 0.24796,0.55792 -0.95457,4.1377 -0.57809,4.62175 0.2083,0.26781 1.75667,-2.29968 1.92467,-2.13166 0.0397,0.0398 -0.28405,-0.90803 -0.25891,-0.95873 0.24092,-0.48182 -0.22856,-0.32899 -0.44122,-0.86065 -0.15219,-0.38049 -0.1727,-0.32935 -0.0176,-0.32935 0.009,0 0.89925,-0.57598 0.85672,-0.60788 -0.5299,-0.39742 -0.0968,0.80177 -0.23977,0.51579 -0.1386,-0.27721 1.22732,-1.21517 1.52391,-1.45783 0.11384,-0.0931 -1.15654,-1.69421 -1.30159,-1.67003 -0.49621,0.0827 -0.5083,-0.84733 -0.98095,-0.67853 -0.32997,0.11784 -0.16691,3.08494 -0.14501,3.00837 0.094,-0.32898 0.27473,-1.16629 0.38788,-1.39258 0.23405,-0.4681 0.32624,-0.65793 0.57581,-1.24033 0.17964,-0.41917 0.42348,-0.41478 0.59994,-0.8383 0.017,-0.0408 -0.1141,0.44225 -0.2072,0.34915 -0.0547,-0.0547 -1.93282,0.23777 -2.07825,0.14081 -0.30443,-0.20295 -0.44024,-0.0426 -0.80523,-0.22519 -0.27502,-0.13751 -1.55289,-2.22183 -1.81072,-1.93176 -0.11719,0.13183 0.0987,3.55839 -0.004,3.70191 -0.0528,0.074 0.94272,-0.65415 0.86708,-0.70455 -0.17753,-0.11835 -0.67107,-0.65337 -0.92045,-0.51423 -0.212,0.11828 -2.1519,0.49985 -2.35276,0.63621"
       id="path870"
       inkscape:connector-curvature="0" />
    <path
       style="fill:none;fill-rule:evenodd;stroke:#f1f100;stroke-width:0.26499999;stroke-linecap:butt;stroke-linejoin:miter;stroke-miterlimit:4;stroke-dasharray:none;stroke-opacity:1"
       d="M132.245793172 270.331928833C131.923293172 270.545298833 130.994358364 271.934682054 130.653078364 272.116512054C130.487388364 272.204812054 131.422973669 271.689185126 131.242453669 271.740985126C130.332943669 272.000845126 128.132576648 272.119196888 127.262926648 272.485366888C126.988326648 272.600986888 128.212913575 271.837383849 127.948033575 271.996033849C127.862433575 272.047433849 127.19327612 274.13331869 127.28256612 274.17796869C127.63186612 274.35261869 130.113818611 272.771640911 130.531448611 272.615030911C130.800618611 272.514090911 130.436117219 270.785166683 130.542887219 271.052076683C130.715807219 271.484386683 129.324653742 272.736252625 129.395883742 273.234892625C129.596813742 274.641412625 130.182638689 273.832746906 130.320058689 275.206946906C130.322058689 275.226646906 129.326960004 275.612136547 129.498160004 275.440926547C130.121170004 274.817916547 131.24609555 271.999145199 131.81183555 271.307685199C131.88893555 271.213485199 133.992007326 272.412782489 134.096427326 272.475422489C134.564977326 272.756552489 133.006443555 274.335023314 133.269803555 274.839803314C133.447913555 275.181193314 135.081314326 276.712363642 135.279424326 277.042553642C135.358624326 277.174573642 133.969046261 276.424140398 134.129066261 276.370800398C134.279326261 276.320700398 135.119988977 276.451796053 135.131228977 276.367446053C135.217928977 275.716786053 135.387063153 272.996197403 135.276493153 272.332807403C135.217093153 271.976317403 133.821630969 272.250978161 133.821630969 271.887778161C133.821630969 271.856578161 136.15856021 272.381486509 136.16951021 272.410686509C136.20291021 272.499686509 134.423678159 272.71299814 134.466568159 272.76579814C134.768348159 273.13720814 136.664229526 272.525758722 137.102139526 272.726478722C137.133239526 272.740778722 137.922181681 274.360097221 137.990231681 274.155957221C138.485341681 272.670647221 134.85074236 273.120262669 134.68041236 272.438922669C134.56455236 271.975502669 137.816683293 270.132350215 138.213723293 269.958640215C138.538353293 269.816620215 138.653677272 269.796585062 138.618627272 269.691425062C138.615627272 269.683425062 137.375443155 270.508258188 137.184463155 270.556008188C137.046283155 270.590508188 135.404952231 268.876519984 135.222392231 268.785239984C135.113982231 268.731039984 136.619764841 266.483002402 136.507174841 266.426702402C136.093634841 266.219932402 133.771928322 267.954842867 133.519648322 267.702552867C133.236588322 267.419492867 133.284205534 265.64888529 133.263135534 265.64888529C132.970875534 265.64888529 131.562441013 266.833835094 131.394331013 267.097995094C131.360931013 267.150395094 130.855973278 267.73468289 130.847803278 267.71834289C130.813803278 267.65034289 132.448881405 267.744531372 132.064541405 268.256981372C131.934801405 268.429981372 128.871165058 268.703973878 128.947065058 268.881063878C128.992965058 268.988063878 131.714029179 269.663024318 131.803389179 269.752384318C131.848889179 269.797884318 130.329294312 268.656766493 130.265014312 268.656766493C130.097704312 268.656766493 130.345858753 268.954253866 130.193698753 268.897153866C130.131798753 268.873953866 129.860361825 268.982339855 129.801191825 268.952759855C129.641101825 268.872659855 129.792967562 267.021524289 129.880397562 267.218284289C129.955297562 267.386884289 129.879811395 268.756649462 130.007551395 268.858839462C130.146361395 268.969889462 129.46418853 268.915411761 129.60539853 269.023391761C130.25827853 269.522651761 132.15813038 270.382650463 132.76866038 270.918480463C132.80406038 271.235140463 133.447005325 269.965744399 133.592455325 270.074834399C133.620355325 270.095734399 133.838765795 272.355755195 133.811245795 272.334315195C133.531805795 272.117045195 130.729834304 270.886152013 130.459894304 270.657192013"
       id="path872"
       inkscape:connector-curvature="0" />
    <circle
       r="1.3229166"
       cy="270.54166"
       cx="185.20834"
       id="circle972"
       style="color:#000000;clip-rule:nonzero;display:inline;overflow:visible;visibility:visible;opacity:1;isolation:auto;mix-blend-mode:normal;color-interpolation:sRGB;color-interpolation-filters:linearRGB;solid-color:#000000;solid-opacity:1;vector-effect:none;fill:url(#radialGradient978);fill-opacity:1;fill-rule:evenodd;stroke:none;stroke-width:0.75406247;stroke-linecap:butt;stroke-linejoin:bevel;stroke-miterlimit:4;stroke-dasharray:none;stroke-dashoffset:0;stroke-opacity:1;paint-order:markers fill stroke;color-rendering:auto;image-rendering:auto;shape-rendering:auto;text-rendering:auto;enable-background:accumulate" />
    <path
       inkscape:connector-curvature="0"
       id="path974"
       d="M181.090572888 268.738463333C181.238282888 270.368023333 183.154947757 270.105883388 182.067027757 270.831163388C182.019327757 270.862963388 182.141302767 270.441810904 182.141302767 270.525370904C182.141302767 270.601270904 181.450968079 270.875692187 181.450968079 271.249192187C181.450968079 271.517032187 181.223807768 269.943902582 181.003357768 270.109232582C180.905957768 270.182332582 181.443918462 270.65186247 181.530018462 270.73792247C181.706918462 270.91482247 182.231733449 271.074014671 182.359863449 271.330294671C182.438363449 271.487374671 181.086710114 271.613755505 181.252100114 271.779105505C181.343100114 271.870105505 184.640530816 274.269553944 184.733850816 274.250953944C185.075000816 274.182753944 184.983570601 273.826054568 185.384660601 274.027064568C185.443160601 274.056264568 185.771097203 271.939210667 185.771097203 272.141720667C185.771097203 272.407220667 184.580237457 273.781951637 184.698967457 273.544471637C184.891757457 273.158891637 185.019373527 275.356479092 185.147993527 274.944869092C185.332273527 274.355169092 184.848110791 275.200546557 185.086560791 274.628326557C185.159860791 274.452516557 186.372229461 270.678033608 186.586589461 270.606573608C186.666889461 270.579773608 186.608183038 270.809349596 186.642733038 270.887059596C186.890693038 271.444979596 185.349261926 275.515740495 185.725741926 275.999790495C185.934041926 276.267600495 187.35644761 274.121614113 187.52444761 274.289634113C187.56414761 274.329434113 188.421205196 273.22729097 188.446345196 273.17659097C188.687265196 272.69477097 187.499945241 271.731093342 187.287285241 271.199433342C187.135095241 270.818943342 187.567916718 271.248327151 187.723016718 271.248327151C187.732016718 271.248327151 189.285080797 270.372957925 189.242550797 270.341057925C188.712650797 269.943637925 188.074823035 271.627518325 187.931853035 271.341538325C187.793253035 271.064328325 188.994858689 270.427601112 189.291448689 270.184941112C189.405288689 270.091841112 187.911088868 267.741589738 187.766038868 267.765769738C187.269828868 267.848469738 187.7557251 267.912563182 187.2830751 268.081363182C186.9531051 268.199203182 188.007456936 271.62709754 188.029356936 271.55052754C188.123356936 271.22154754 187.498904737 269.333949935 187.612054737 269.107659935C187.846104737 268.639559935 188.527738414 268.776189046 188.777308414 268.193789046C188.956948414 267.774619046 189.284483188 268.035123803 189.460943188 267.611603803C189.477943188 267.570803803 189.326981137 267.919310143 189.233881137 267.826210143C189.179181137 267.771510143 186.133498343 267.504395036 185.988068343 267.407435036C185.683638343 267.204485036 186.833066987 266.629579707 186.468076987 266.446989707C186.193056987 266.309479707 183.681158225 264.340075514 183.423328225 264.630145514C183.306138225 264.761975514 183.332475793 269.40369039 183.229775793 269.54721039C183.176975793 269.62121039 184.879221201 268.864931015 184.803581201 268.814531015C184.626051201 268.696181015 183.446106805 268.560384256 183.196726805 268.699524256C182.984726805 268.817804256 182.197326096 267.65008803 181.996466096 267.78644803"
       style="fill:none;fill-rule:evenodd;stroke:#b8b800;stroke-width:0.26458332px;stroke-linecap:butt;stroke-linejoin:miter;stroke-opacity:1"
       sodipodi:nodetypes="cssscsccccscccccccccscccccccccsccccccc" />
    <path
       inkscape:connector-curvature="0"
       id="path976"
       d="M185.226492701 271.093457815C184.903992701 271.306827815 183.162568434 272.368770913 182.821288434 272.550600913C182.655598434 272.638900913 184.238277504 271.854717575 184.057757504 271.906517575C183.148247504 272.166377575 180.458022619 271.546721849 179.588372619 271.912891849C179.313772619 272.028511849 181.727822332 270.850972382 181.462942332 271.009622382C181.377342332 271.061022382 181.089407444 273.251705329 181.178697444 273.296355329C181.527997444 273.471005329 182.079437865 273.156719043 182.497067865 273.000109043C182.766237865 272.899169043 184.306973368 271.2710209 184.413673368 271.5379309C184.586593368 271.9702409 183.171205039 272.227648838 183.242435039 272.726288838C183.443365039 274.132808838 183.860265463 273.700187766 183.997685463 275.074387766C183.999685463 275.094087766 181.456259203 275.131812485 181.627459203 274.960602485C182.250469203 274.337592485 184.632173297 271.062169323 185.197913297 270.370709323C185.275013297 270.276509323 187.212848552 272.866188709 187.317268552 272.928828709C187.785818552 273.209958709 186.551837956 275.322992538 186.815197956 275.827772538C186.993307956 276.169162538 187.960337039 275.82066165 188.158447039 276.15085165C188.237647039 276.28287165 186.753048755 275.674147617 186.913068755 275.620807617C187.063328755 275.570707617 188.181698487 276.002584343 188.192938487 275.918584343C188.279638487 275.267924343 189.145840736 272.965168742 189.035270736 272.301778742C188.975870736 271.945288742 186.42498128 273.034669299 186.42498128 272.671439299C186.42498128 272.640239299 189.673131676 273.008825335 189.684081676 273.038025335C189.717481676 273.127025335 187.701213452 272.921426027 187.744103452 272.974226027C188.045883452 273.345636027 189.927758402 273.406343178 190.365668402 273.607083178C190.396768402 273.621383178 190.602464399 274.262325981 190.670514399 274.058185981C191.165624399 272.572875981 188.402809395 273.003875716 188.232479395 272.322535716C188.116619395 271.859115716 191.503887337 269.942126334 191.900927337 269.768416334C192.225557337 269.626396334 192.320007034 270.024649797 192.284957034 269.919489797C192.281957034 269.911489797 190.830404442 270.269040716 190.639424442 270.316790716C190.501244442 270.351290716 188.774710728 268.894399188 188.592150728 268.803119188C188.483740728 268.748919188 189.477592038 267.121129051 189.365002038 267.064829051C188.951462038 266.858059051 187.412132565 268.595486168 187.159852565 268.343196168C186.876792565 268.060136168 185.666363116 265.269890845 185.645293116 265.269890845C185.353033116 265.269890845 184.206474214 266.747959505 184.038364214 267.012119505C184.004964214 267.064519505 182.959216314 267.000964686 182.951046314 266.984624686C182.917046314 266.916624686 185.910686209 267.426137101 185.526346209 267.938577101C185.396606209 268.111577101 180.927440066 268.504949607 181.003340066 268.682039607C181.049240066 268.789039607 185.535811379 269.675647059 185.625171379 269.765007059C185.670671379 269.810507059 183.903611065 267.785221822 183.839331065 267.785221822C183.672021065 267.785221822 182.426322927 268.146169399 182.274222927 268.089069399C182.212322927 268.065869399 183.73238892 269.387236745 183.67321892 269.357636745C183.51312892 269.277536745 182.539304563 266.187102653 182.626504563 266.383862653C182.701404563 266.552462653 182.312822836 269.213670345 182.440562836 269.315860345C182.579372836 269.426910345 181.398347402 268.080913606 181.539557402 268.188863606C182.192437402 268.688123606 184.408251137 269.758204702 185.018781137 270.294034702C185.054181137 270.610694702 185.836079959 270.828302404 185.981529959 270.937392404C186.009429959 270.958292404 187.061840081 271.598566195 187.034320081 271.577126195C186.754880081 271.359856195 183.681909717 270.420883298 183.411969717 270.191923298"
       style="fill:none;fill-rule:evenodd;stroke:#f1f100;stroke-width:0.26499999;stroke-linecap:butt;stroke-linejoin:miter;stroke-miterlimit:4;stroke-dasharray:none;stroke-opacity:1" />
    <circle
       style="color:#000000;clip-rule:nonzero;display:inline;overflow:visible;visibility:visible;opacity:1;isolation:auto;mix-blend-mode:normal;color-interpolation:sRGB;color-interpolation-filters:linearRGB;solid-color:#000000;solid-opacity:1;vector-effect:none;fill:url(#radialGradient1034);fill-opacity:1;fill-rule:evenodd;stroke:none;stroke-width:0.75406247;stroke-linecap:butt;stroke-linejoin:bevel;stroke-miterlimit:4;stroke-dasharray:none;stroke-dashoffset:0;stroke-opacity:1;paint-order:markers fill stroke;color-rendering:auto;image-rendering:auto;shape-rendering:auto;text-rendering:auto;enable-background:accumulate"
       id="circle1028"
       cx="238.125"
       cy="270.54166"
       r="1.3229166" />
    <path
       style="fill:none;fill-rule:evenodd;stroke:#b8b800;stroke-width:0.26458332px;stroke-linecap:butt;stroke-linejoin:miter;stroke-opacity:1"
       d="m 235.71058,268.0221 c 0.1477,1.62956 0.42384,0.90193 -0.66409,1.62721 -0.0477,0.0318 0.11582,-0.44616 0.11582,-0.3626 0,0.0759 0.13885,1.53087 0.13885,1.90437 0,0.26784 -0.93329,0.31064 -1.15374,0.47597 -0.0974,0.0731 0.73294,-0.39564 0.81904,-0.30954 0.1769,0.1769 1.12164,0.89662 1.24976,1.1529 0.0785,0.15708 -1.07114,-0.12225 -0.90575,0.0431 0.0909,0.091 0.59065,0.45042 0.68397,0.43182 0.34116,-0.0682 1.11089,0.70525 1.51202,0.90582 0.0585,0.0292 0.89711,1.94074 0.89711,2.14325 0,0.2655 -0.36312,1.09127 -0.24439,0.8538 0.19279,-0.38558 -0.27548,-2.34781 -0.14686,-2.75942 0.18429,-0.5897 0.50481,0.0578 0.74325,-0.51442 0.0733,-0.17581 0.0911,-2.14761 0.30547,-2.21907 0.0803,-0.0268 1.56347,0.043 1.59801,0.12071 0.24797,0.55792 -0.87115,2.76614 -0.49466,3.25019 0.20829,0.26781 0.6021,-1.50688 0.77009,-1.33886 0.0397,0.0398 -0.5807,0.0487 -0.55556,-0.002 0.24091,-0.48182 0.57518,-0.94148 0.36251,-1.47314 -0.15219,-0.38049 0.14265,0.1161 0.29779,0.1161 0.009,0 0.46753,-1.67833 0.425,-1.71023 -0.5299,-0.39742 -1.25278,0.4887 -1.39576,0.20272 -0.13861,-0.27721 1.52334,-0.5585 1.81994,-0.80116 0.11383,-0.0931 0.17374,-1.00063 0.0287,-0.97645 -0.49621,0.0827 -1.15162,-0.49836 -1.62427,-0.32956 -0.32996,0.11784 0.0406,1.39283 0.0625,1.31626 0.094,-0.32898 0.17465,-1.07713 0.28779,-1.30342 0.23405,-0.4681 -0.5678,0.5024 -0.31823,-0.08 0.17964,-0.41917 1.44664,-0.0608 1.6231,-0.48432 0.017,-0.0408 -1.16178,-0.51827 -1.25488,-0.61137 -0.0547,-0.0547 -0.72207,0.85499 -0.86751,0.75803 -0.30443,-0.20295 0.91727,-1.06778 0.55228,-1.25028 -0.27502,-0.13751 -2.53364,0.94034 -2.79147,1.2304 -0.11719,0.13183 -0.29645,0.021 -0.39897,0.16452 -0.0528,0.074 0.88494,0.0678 0.80931,0.0174 -0.17754,-0.11835 -1.86994,-0.45587 -2.11932,-0.31673 -0.21201,0.11828 -0.93878,0.0812 -1.13963,0.21756"
       id="path1030"
       inkscape:connector-curvature="0" />
    <path
       style="fill:none;fill-rule:evenodd;stroke:#f1f100;stroke-width:0.26499999;stroke-linecap:butt;stroke-linejoin:miter;stroke-miterlimit:4;stroke-dasharray:none;stroke-opacity:1"
       d="m 237.61216,270.13745 c -0.3225,0.21337 -1.02958,1.30559 -1.37086,1.48742 -0.16568,0.0883 1.0229,-0.89066 0.84238,-0.83886 -0.90951,0.25986 -2.17605,0.90776 -3.0457,1.27393 -0.27461,0.11562 -0.73819,-0.16465 -1.00308,-0.006 -0.0856,0.0514 0.4828,1.51229 0.57209,1.55694 0.3493,0.17465 2.60387,-1.03014 3.0215,-1.18675 0.26918,-0.10094 0.37316,-0.91855 0.47992,-0.65164 0.17293,0.43231 -0.98373,0.80949 -0.9125,1.30813 0.20093,1.40652 0.75023,0.48783 0.88765,1.86203 0.002,0.0197 -0.99276,0.86931 -0.82155,0.6981 0.62301,-0.62301 1.56913,-3.00126 2.13486,-3.69272 0.0771,-0.0942 0.95988,0.10261 1.06429,0.16525 0.46855,0.28113 -0.76893,1.81063 -0.50557,2.31541 0.17812,0.34139 1.61671,1.46696 1.81482,1.79715 0.0792,0.13202 -0.33651,0.3556 -0.17649,0.30226 0.15026,-0.0501 -0.47097,-0.58068 -0.45973,-0.66503 0.0868,-0.65066 1.6083,-2.26994 1.49773,-2.93333 -0.0594,-0.35649 -1.14591,-0.20289 -1.14591,-0.56609 0,-0.0312 1.14746,0.16216 1.15841,0.19136 0.0334,0.089 -1.34429,0.9517 -1.30139,1.0045 0.30177,0.37141 1.1871,-0.23422 1.62501,-0.0335 0.0311,0.0143 2.53325,1.25071 2.60129,1.04657 0.49511,-1.48531 -3.88783,-2.12561 -4.05817,-2.80695 -0.11585,-0.46342 2.97679,-1.36318 3.37384,-1.53689 0.32462,-0.14202 0.63075,-1.14471 0.59569,-1.24987 -0.003,-0.008 -1.59524,1.77625 -1.78621,1.824 -0.13819,0.0345 -1.54495,-1.28113 -1.72751,-1.37241 -0.10841,-0.0542 1.41143,-2.67565 1.29884,-2.73195 -0.41353,-0.20677 -2.6378,2.09074 -2.89009,1.83845 -0.28306,-0.28306 -0.46019,-2.56625 -0.48127,-2.56625 -0.29226,0 -1.21095,1.1797 -1.37905,1.44386 -0.0334,0.0524 -1.02663,0.42693 -1.0348,0.41059 -0.034,-0.068 0.87602,-0.61985 0.49168,-0.1074 -0.12975,0.173 -1.50258,0.64382 -1.42668,0.82091 0.0459,0.107 1.51288,0.83766 1.60225,0.92702 0.0455,0.0455 -1.07455,-1.0389 -1.13883,-1.0389 -0.16732,0 0.45023,-0.4071 0.29807,-0.4642 -0.0619,-0.0232 -1.16796,0.43405 -1.22712,0.40447 -0.1601,-0.0801 0.78586,-0.58394 0.87329,-0.38718 0.0749,0.1686 -0.97192,1.72967 -0.84418,1.83186 0.13881,0.11105 0.83195,-0.5981 0.97315,-0.49012 0.65288,0.49926 1.66019,1.58434 2.27072,2.12017 0.0354,0.31666 -0.0187,-1.26684 0.12675,-1.15775 0.0279,0.0209 0.20466,1.45896 0.17714,1.43752 -0.27943,-0.21727 -1.16016,-1.61931 -1.43011,-1.84827"
       id="path1032"
       inkscape:connector-curvature="0" />
    <ellipse
       style="color:#000000;clip-rule:nonzero;display:inline;overflow:visible;visibility:visible;opacity:1;isolation:auto;mix-blend-mode:normal;color-interpolation:sRGB;color-interpolation-filters:linearRGB;solid-color:#000000;solid-opacity:1;vector-effect:none;fill:url(#radialGradient1070);fill-opacity:1;fill-rule:evenodd;stroke:none;stroke-width:0.16711712;stroke-linecap:butt;stroke-linejoin:bevel;stroke-miterlimit:4;stroke-dasharray:none;stroke-dashoffset:0;stroke-opacity:1;paint-order:normal;color-rendering:auto;image-rendering:auto;shape-rendering:auto;text-rendering:auto;enable-background:accumulate"
       id="path1062"
       cx="291.04166"
       cy="270.54166"
       rx="6.6955833"
       ry="6.5481043" />
    <path
       style="color:#000000;clip-rule:nonzero;display:inline;overflow:visible;visibility:visible;opacity:1;isolation:auto;mix-blend-mode:normal;color-interpolation:sRGB;color-interpolation-filters:linearRGB;solid-color:#000000;solid-opacity:1;vector-effect:none;fill:url(#radialGradient2394);fill-opacity:1;fill-rule:evenodd;stroke:none;stroke-width:0.75406247;stroke-linecap:butt;stroke-linejoin:bevel;stroke-miterlimit:4;stroke-dasharray:none;stroke-dashoffset:0;stroke-opacity:1;paint-order:markers fill stroke;color-rendering:auto;image-rendering:auto;shape-rendering:auto;text-rendering:auto;enable-background:accumulate"
       id="circle1046"
       sodipodi:type="arc"
       sodipodi:cx="375.32593"
       sodipodi:cy="131.25948"
       sodipodi:rx="1.3229166"
       sodipodi:ry="1.3229166"
       sodipodi:start="0"
       sodipodi:end="3.329353"
       d="m 376.64884,131.25948 a 1.3229166,1.3229166 0 0 1 -0.73441,1.1848 1.3229166,1.3229166 0 0 1 -1.38782,-0.13067 1.3229166,1.3229166 0 0 1 -0.50035,-1.30107"
       sodipodi:open="true"
       transform="rotate(23.678131)" />
    <path
       id="circle1036"
       style="color:#000000;clip-rule:nonzero;display:inline;overflow:visible;visibility:visible;opacity:1;isolation:auto;mix-blend-mode:normal;color-interpolation:sRGB;color-interpolation-filters:linearRGB;solid-color:#000000;solid-opacity:1;vector-effect:none;fill:url(#radialGradient2396);fill-opacity:1;fill-rule:evenodd;stroke:none;stroke-width:0.75406247;stroke-linecap:butt;stroke-linejoin:bevel;stroke-miterlimit:4;stroke-dasharray:none;stroke-dashoffset:0;stroke-opacity:1;paint-order:markers fill stroke;color-rendering:auto;image-rendering:auto;shape-rendering:auto;text-rendering:auto;enable-background:accumulate"
       sodipodi:type="arc"
       sodipodi:cx="-396.61063"
       sodipodi:cy="-25.98922"
       sodipodi:rx="1.3229166"
       sodipodi:ry="1.3229166"
       sodipodi:start="0"
       sodipodi:end="2.9031734"
       sodipodi:open="true"
       d="m -395.28771,-25.98922 a 1.3229166,1.3229166 0 0 1 -1.16559,1.313528 1.3229166,1.3229166 0 0 1 -1.44282,-1.001099"
       transform="rotate(-140.89269)" />
    <path
       inkscape:connector-curvature="0"
       id="path1038"
       d="m 288.39583,267.89582 c 0.14771,1.62956 0.14701,1.20426 -0.94091,1.92954 -0.0477,0.0318 -0.28063,0.10353 -0.28063,0.18709 0,0.0759 1.07576,0.14099 1.07576,0.51449 0,0.26784 -0.38759,0.81688 -0.60804,0.98221 -0.0974,0.0731 -0.36673,0.14776 -0.28063,0.23386 0.1769,0.1769 1.04118,-0.20948 1.1693,0.0468 0.0785,0.15708 -0.96051,1.56518 -0.79512,1.73057 0.0909,0.091 1.77756,0.0654 1.87088,0.0468 0.34116,-0.0682 1.04881,-0.4812 1.44994,-0.28063 0.0585,0.0292 0.0468,1.76192 0.0468,1.96443 0,0.2655 -0.072,1.0326 0.0468,0.79513 0.19279,-0.38558 0.19878,-0.89802 0.32741,-1.30963 0.18428,-0.5897 0.60345,-1.1583 0.84189,-1.73056 0.0733,-0.17581 0.1598,-0.72367 0.37418,-0.79513 0.0803,-0.0268 0.15255,0.0158 0.18709,0.0935 0.24797,0.55792 0.55896,1.01266 0.93544,1.49671 0.2083,0.26781 0.0659,-0.0277 0.23387,0.14032 0.0397,0.0398 0.0684,0.19059 0.0935,0.14031 0.24091,-0.48182 -0.67601,-1.94726 -0.88868,-2.47892 -0.15219,-0.38049 1.43511,-0.23386 1.59026,-0.23386 0.009,0 0.36994,-0.0149 0.3274,-0.0468 -0.52989,-0.39742 -2.47625,-0.41561 -2.61924,-0.70159 -0.13861,-0.27721 2.04202,-1.44113 2.33861,-1.68379 0.11384,-0.0931 0.37894,-0.39836 0.23386,-0.37418 -0.49621,0.0827 -1.02406,0.29892 -1.49671,0.46772 -0.32996,0.11784 -0.58314,0.21689 -0.56126,0.14032 0.094,-0.32898 0.12071,-0.19466 0.23386,-0.42095 0.23405,-0.4681 -0.0625,0.0211 0.18709,-0.56127 0.17964,-0.41917 0.43157,-0.79257 0.60803,-1.21608 0.017,-0.0408 0.28019,-0.46816 0.18709,-0.56126 -0.0547,-0.0547 -1.16418,1.45335 -1.30962,1.35639 -0.30443,-0.20295 -0.10273,-0.89326 -0.46772,-1.07576 -0.27502,-0.13751 -1.80014,1.53406 -2.05798,1.82412 -0.11718,0.13183 -0.27165,0.23064 -0.37417,0.37417 -0.0528,0.074 -0.0647,0.28429 -0.14032,0.23386 -0.17753,-0.11835 -0.68606,-1.77616 -0.93544,-1.63702 -0.21201,0.11828 -0.40172,0.27271 -0.60257,0.40907"
       style="fill:none;fill-rule:evenodd;stroke:#b8b800;stroke-width:0.26458332px;stroke-linecap:butt;stroke-linejoin:miter;stroke-opacity:1" />
    <path
       inkscape:connector-curvature="0"
       id="path1040"
       d="m 291.04167,270.54165 c -0.3225,0.21337 -0.62623,0.45827 -0.96751,0.6401 -0.16568,0.0883 -0.38075,-0.005 -0.56126,0.0468 -0.90951,0.25986 -1.84314,0.61605 -2.71279,0.98222 -0.2746,0.11562 -0.67056,0.30879 -0.93544,0.46772 -0.0856,0.0514 -0.32315,0.14244 -0.23386,0.18709 0.34929,0.17465 2.7161,-0.59175 3.13373,-0.74836 0.26918,-0.10094 0.73514,-0.454 0.8419,-0.18709 0.17292,0.43231 -0.0712,1.41902 0,1.91766 0.20093,1.40652 0.003,-0.81293 0.14032,0.56127 0.002,0.0197 0.10943,0.49861 0.28063,0.3274 0.62301,-0.62301 0.79066,-1.69392 1.3564,-2.38538 0.0771,-0.0942 0.17621,-0.2965 0.28063,-0.23386 0.46854,0.28113 0.76563,1.74029 1.02898,2.24507 0.17812,0.34139 0.40993,0.65202 0.60804,0.98221 0.0792,0.13202 0.30771,0.70815 0.46773,0.65481 0.15026,-0.0501 0.0823,-0.61723 0.0935,-0.70158 0.0867,-0.65066 0.15733,-1.30104 0.0468,-1.96443 -0.0594,-0.35649 -0.14032,-0.66579 -0.14032,-1.02899 0,-0.0312 -0.0109,0.0643 0,0.0935 0.0334,0.089 0.28451,0.55524 0.3274,0.60804 0.30178,0.37141 0.87172,0.82827 1.30962,1.02898 0.0311,0.0143 1.47544,0.57832 1.54349,0.37418 0.4951,-1.48531 -2.35536,-2.35885 -2.5257,-3.04019 -0.11585,-0.46342 1.94156,-1.04237 2.33861,-1.21608 0.32462,-0.14202 0.68986,-0.22224 0.65481,-0.3274 -0.003,-0.008 -1.96055,0.13934 -2.15152,0.18709 -0.13819,0.0345 -0.37871,0.23159 -0.56127,0.14031 -0.10841,-0.0542 0.019,-2.98389 -0.0935,-3.04019 -0.41353,-0.20677 -1.47828,1.98286 -1.73057,1.73057 -0.28306,-0.28306 -1.47563,-2.47892 -1.49671,-2.47892 -0.29225,0 -1.0012,1.09223 -1.1693,1.35639 -0.0333,0.0524 -0.31923,0.48406 -0.32741,0.46772 -0.034,-0.068 -0.45755,-1.96239 -0.8419,-1.44994 -0.12974,0.173 -0.12267,1.08576 -0.0468,1.26285 0.0458,0.107 0.23804,0.37836 0.32741,0.46772 0.0455,0.0455 0.25137,0.0468 0.18709,0.0468 -0.16732,0 -0.45588,0.0571 -0.60804,0 -0.0619,-0.0232 -0.0811,-0.11074 -0.14032,-0.14032 -0.16009,-0.0801 -0.36806,0.0371 -0.28063,0.23386 0.0749,0.1686 0.33998,0.36553 0.46772,0.46772 0.13881,0.11105 0.27975,0.21943 0.42095,0.32741 0.65288,0.49926 1.3539,0.91411 1.96443,1.44994 0.0354,0.31666 0.32227,0.17154 0.46773,0.28063 0.0279,0.0209 0.0743,0.11494 0.0468,0.0935 -0.27944,-0.21727 -0.5399,-0.45791 -0.80984,-0.68687"
       style="fill:none;fill-rule:evenodd;stroke:#f1f100;stroke-width:0.26499999;stroke-linecap:butt;stroke-linejoin:miter;stroke-miterlimit:4;stroke-dasharray:none;stroke-opacity:1" />
    <ellipse
       ry="12.935143"
       rx="13.226474"
       cy="270.54166"
       cx="343.95831"
       id="ellipse1072"
       style="color:#000000;clip-rule:nonzero;display:inline;overflow:visible;visibility:visible;opacity:1;isolation:auto;mix-blend-mode:normal;color-interpolation:sRGB;color-interpolation-filters:linearRGB;solid-color:#000000;solid-opacity:1;vector-effect:none;fill:url(#radialGradient1088);fill-opacity:1;fill-rule:evenodd;stroke:none;stroke-width:0.33012366;stroke-linecap:butt;stroke-linejoin:bevel;stroke-miterlimit:4;stroke-dasharray:none;stroke-dashoffset:0;stroke-opacity:1;paint-order:normal;color-rendering:auto;image-rendering:auto;shape-rendering:auto;text-rendering:auto;enable-background:accumulate" />
    <path
       transform="rotate(-140.89269)"
       d="m -436.84557,9.8074913 a 1.3229166,1.3229166 0 0 1 -1.16559,1.3135277 1.3229166,1.3229166 0 0 1 -1.44282,-1.001099"
       sodipodi:open="true"
       sodipodi:end="2.9031734"
       sodipodi:start="0"
       sodipodi:ry="1.3229166"
       sodipodi:rx="1.3229166"
       sodipodi:cy="9.8074913"
       sodipodi:cx="-438.16849"
       sodipodi:type="arc"
       style="color:#000000;clip-rule:nonzero;display:inline;overflow:visible;visibility:visible;opacity:0.7;isolation:auto;mix-blend-mode:normal;color-interpolation:sRGB;color-interpolation-filters:linearRGB;solid-color:#000000;solid-opacity:1;vector-effect:none;fill:url(#radialGradient1090);fill-opacity:1;fill-rule:evenodd;stroke:none;stroke-width:0.75406247;stroke-linecap:butt;stroke-linejoin:bevel;stroke-miterlimit:4;stroke-dasharray:none;stroke-dashoffset:0;stroke-opacity:1;paint-order:markers fill stroke;color-rendering:auto;image-rendering:auto;shape-rendering:auto;text-rendering:auto;enable-background:accumulate"
       id="path1074" />
    <path
       transform="rotate(23.678131)"
       sodipodi:open="true"
       d="m 424.82063,112.79977 a 1.3229166,1.3229166 0 0 1 -0.73441,1.1848 1.3229166,1.3229166 0 0 1 -1.38783,-0.13067 1.3229166,1.3229166 0 0 1 -0.50034,-1.30107"
       sodipodi:end="3.329353"
       sodipodi:start="0"
       sodipodi:ry="1.3229166"
       sodipodi:rx="1.3229166"
       sodipodi:cy="112.79977"
       sodipodi:cx="423.49771"
       sodipodi:type="arc"
       id="path1080"
       style="color:#000000;clip-rule:nonzero;display:inline;overflow:visible;visibility:visible;opacity:0.7;isolation:auto;mix-blend-mode:normal;color-interpolation:sRGB;color-interpolation-filters:linearRGB;solid-color:#000000;solid-opacity:1;vector-effect:none;fill:url(#radialGradient1092);fill-opacity:1;fill-rule:evenodd;stroke:none;stroke-width:0.75406247;stroke-linecap:butt;stroke-linejoin:bevel;stroke-miterlimit:4;stroke-dasharray:none;stroke-dashoffset:0;stroke-opacity:1;paint-order:markers fill stroke;color-rendering:auto;image-rendering:auto;shape-rendering:auto;text-rendering:auto;enable-background:accumulate" />
    <path
       style="fill:none;fill-rule:evenodd;stroke:#b8b800;stroke-width:0.26458332px;stroke-linecap:butt;stroke-linejoin:miter;stroke-opacity:1"
       d="M342.761014326 268.699605822C342.908724326 270.329165822 339.537191569 267.806794772 338.449271569 268.532074772C338.401571569 268.563874772 339.675314583 271.027762064 339.675314583 271.111322064C339.675314583 271.187222064 340.238189789 269.107937519 340.238189789 269.481437519C340.238189789 269.749277519 341.07729639 271.079242597 340.85684639 271.244572597C340.75944639 271.317672597 339.012728089 271.614067517 339.098828089 271.700167517C339.275728089 271.877067517 340.313433089 273.11546269 340.441553089 273.37174269C340.520053089 273.52882269 340.382308721 274.032431916 340.547698721 274.197821916C340.638598721 274.288821916 343.703054638 272.416120737 343.796374638 272.397520737C344.137534638 272.329320737 343.263603572 274.169519515 343.664733572 274.370089515C343.723233572 274.399289515 343.353035818 273.920941247 343.353035818 274.123451247C343.353035818 274.388951247 343.550248777 277.114938025 343.669048777 276.877468025C343.861838777 276.491888025 344.945893395 276.513459005 345.074523395 276.101849005C345.258803395 275.512149005 345.872321942 272.416373816 346.110761942 271.844113816C346.184061942 271.668303816 347.202730288 271.668316385 347.417110288 271.596856385C347.497410288 271.570056385 346.445660323 271.087426501 346.480200323 271.165126501C346.728170323 271.723046501 346.230890304 271.629157136 346.607370304 272.113207136C346.815670304 272.381017136 346.2959592 272.691480971 346.4639292 272.859500971C346.5036292 272.899300971 347.479720653 273.662221021 347.504820653 273.611941021C347.745730653 273.130121021 346.271673061 274.099816004 346.059003061 273.568156004C345.906813061 273.187666004 347.159045829 271.166489355 347.314195829 271.166489355C347.323195829 271.166489355 348.577393856 270.806876064 348.534853856 270.774976064C348.004963856 270.377556064 343.809776091 272.28853542 343.666786091 272.00255542C343.528176091 271.72534542 345.687926497 270.623941584 345.984516497 270.381281584C346.098356497 270.288181584 348.964429265 267.261470471 348.819349265 267.285650471C348.323139265 267.368350471 346.187574479 270.711745921 345.714924479 270.880545921C345.384964479 270.998385921 347.487516454 269.195863575 347.509396454 269.119293575C347.603396454 268.790313575 347.511971833 269.319623599 347.625121833 269.093333599C347.859171833 268.625233599 346.892376862 266.910340058 347.141966862 266.327970058C347.321606862 265.908800058 348.049222478 267.893599599 348.225682478 267.470089599C348.242682478 267.429289599 345.92924874 267.375795208 345.83614874 267.282695208C345.78144874 267.227995208 346.324079574 267.200906208 346.178639574 267.103946208C345.874209574 266.900996208 344.539879091 266.761972662 344.174889091 266.579472662C343.899869091 266.441962662 342.839550622 267.198195014 342.581710622 267.488255014C342.464530622 267.620085014 342.874218659 266.931480856 342.771698659 267.075010856C342.718898659 267.149010856 342.988761172 269.489719351 342.913141172 269.439289351C342.735611172 269.320939351 343.035350546 268.131325726 342.785970546 268.270465726C342.573960546 268.388745726 340.342356592 269.022193007 340.141506592 269.158553007"
       id="path1076"
       inkscape:connector-curvature="0" />
    <path
       style="fill:none;fill-rule:evenodd;stroke:#f1f100;stroke-width:0.26499999;stroke-linecap:butt;stroke-linejoin:miter;stroke-miterlimit:4;stroke-dasharray:none;stroke-opacity:1"
       d="M343.986051543 268.988484899C343.663551543 269.201854899 343.116082758 271.266697903 342.774802758 271.448527903C342.609122758 271.536827903 341.959822796 269.918742719 341.779312796 269.970542719C340.869802796 270.230402719 340.486090925 272.165379777 339.616440925 272.531549777C339.341840925 272.647169777 338.072407946 270.767943749 337.807527946 270.926873749C337.721927946 270.978273749 339.42565042 273.269567125 339.51494042 273.314217125C339.86423042 273.488867125 339.974989295 271.629112292 340.392619295 271.472502292C340.661799295 271.371562292 342.777686833 271.193654884 342.884446833 271.460564884C343.057366833 271.892874884 343.270282716 273.814345377 343.341482716 274.312985377C343.542412716 275.719505377 341.872538291 273.442463728 342.009858291 274.816663728C342.011858291 274.836363728 341.670346832 274.564796149 341.841546832 274.393586149C342.464556832 273.770576149 341.971360928 273.946605837 342.537100928 273.255145837C342.614200928 273.160945837 346.459898761 273.082176868 346.564318761 273.144816868C347.032858761 273.425946868 346.562098765 275.550637219 346.825448765 276.055417219C347.003568765 276.396807219 346.46890804 274.801342564 346.66701804 275.131532564C346.74621804 275.263552564 347.606335698 274.081222208 347.766355698 274.027882208C347.916615698 273.977782208 347.139005918 276.718207452 347.150205918 276.633857452C347.236905918 275.983197452 345.8013395 275.008468895 345.6908095 274.345078895C345.6314095 273.988588895 346.781994349 270.787831019 346.781994349 270.424631019C346.781994349 270.393431019 344.831820094 271.680597484 344.842720094 271.709797484C344.876120094 271.798797484 345.834563352 274.416777387 345.877453352 274.469577387C346.179233352 274.840987387 347.334827694 274.123763825 347.772727694 274.324473825C347.803827694 274.338773825 348.995510738 272.789705511 349.063560738 272.585565511C349.558660738 271.100255511 345.863465961 273.998392305 345.693125961 273.317052305C345.577275961 272.853632305 350.350660438 269.34423547 350.747710438 269.17052547C351.072330438 269.02850547 348.8582006 269.549177043 348.8231506 269.444017043C348.8201506 269.436017043 348.811411365 269.195247553 348.620441365 269.242997553C348.482251365 269.277497553 348.963424609 268.987721374 348.780864609 268.896441374C348.672454609 268.842241374 347.14642602 267.182486242 347.03392602 267.126186242C346.62039602 266.919416242 345.329137154 270.312111 345.076847154 270.059821C344.793787154 269.776761 344.11433454 265.114561192 344.09325454 265.114561192C343.80100454 265.114561192 343.918542959 267.859544122 343.750442959 268.123704122C343.717142959 268.176104122 344.609101649 268.645763879 344.600921649 268.629423879C344.566921649 268.561423879 342.598591196 265.264862805 342.214241196 265.777312805C342.084501196 265.950312805 340.464552513 269.816075993 340.540422513 269.993165993C340.586222513 270.100165993 343.510394637 270.253150462 343.599764637 270.342510462C343.645264637 270.388010462 341.953447199 267.311253696 341.889167199 267.311253696C341.721847199 267.311253696 340.402302004 269.200352059 340.250142004 269.143252059C340.188242004 269.120052059 342.178268751 266.589026208 342.119048751 266.559446208C341.958958751 266.479346208 343.21716977 268.505703159 343.30459977 268.702463159C343.37949977 268.871063159 342.244789129 268.563255466 342.372529129 268.665445466C342.511339129 268.776495466 340.830832468 268.170047138 340.972032468 268.278027138C341.624912468 268.777287138 344.252447479 271.889851013 344.862977479 272.425681013C344.898377479 272.742341013 344.266311106 271.714878017 344.411771106 271.823968017C344.439671106 271.844868017 344.000288441 269.773717922 343.972788441 269.752277922C343.693348441 269.535007922 342.847959111 268.840995517 342.578019111 268.612035517"
       id="path1078"
       inkscape:connector-curvature="0" />
    <ellipse
       style="color:#000000;clip-rule:nonzero;display:inline;overflow:visible;visibility:visible;opacity:1;isolation:auto;mix-blend-mode:normal;color-interpolation:sRGB;color-interpolation-filters:linearRGB;solid-color:#000000;solid-opacity:1;vector-effect:none;fill:url(#radialGradient1316);fill-opacity:1;fill-rule:evenodd;stroke:none;stroke-width:0.40608987;stroke-linecap:butt;stroke-linejoin:bevel;stroke-miterlimit:4;stroke-dasharray:none;stroke-dashoffset:0;stroke-opacity:1;paint-order:normal;color-rendering:auto;image-rendering:auto;shape-rendering:auto;text-rendering:auto;enable-background:accumulate"
       id="ellipse1306"
       cx="396.87497"
       cy="270.54166"
       rx="16.270075"
       ry="15.911706" />
    <path
       id="path1308"
       style="color:#000000;clip-rule:nonzero;display:inline;overflow:visible;visibility:visible;opacity:0.37000002;isolation:auto;mix-blend-mode:normal;color-interpolation:sRGB;color-interpolation-filters:linearRGB;solid-color:#000000;solid-opacity:1;vector-effect:none;fill:url(#radialGradient1318);fill-opacity:1;fill-rule:evenodd;stroke:none;stroke-width:0.75406247;stroke-linecap:butt;stroke-linejoin:bevel;stroke-miterlimit:4;stroke-dasharray:none;stroke-dashoffset:0;stroke-opacity:1;paint-order:markers fill stroke;color-rendering:auto;image-rendering:auto;shape-rendering:auto;text-rendering:auto;enable-background:accumulate"
       sodipodi:type="arc"
       sodipodi:cx="-479.3577"
       sodipodi:cy="46.017559"
       sodipodi:rx="1.3229166"
       sodipodi:ry="1.3229166"
       sodipodi:start="0"
       sodipodi:end="2.9031734"
       sodipodi:open="true"
       d="m -478.03478,46.017559 a 1.3229166,1.3229166 0 0 1 -1.16559,1.313528 1.3229166,1.3229166 0 0 1 -1.44282,-1.001099"
       transform="rotate(-140.89269)" />
    <path
       style="color:#000000;clip-rule:nonzero;display:inline;overflow:visible;visibility:visible;opacity:0.37000002;isolation:auto;mix-blend-mode:normal;color-interpolation:sRGB;color-interpolation-filters:linearRGB;solid-color:#000000;solid-opacity:1;vector-effect:none;fill:url(#radialGradient1320);fill-opacity:1;fill-rule:evenodd;stroke:none;stroke-width:0.75406247;stroke-linecap:butt;stroke-linejoin:bevel;stroke-miterlimit:4;stroke-dasharray:none;stroke-dashoffset:0;stroke-opacity:1;paint-order:markers fill stroke;color-rendering:auto;image-rendering:auto;shape-rendering:auto;text-rendering:auto;enable-background:accumulate"
       id="path1310"
       sodipodi:type="arc"
       sodipodi:cx="471.27289"
       sodipodi:cy="94.594261"
       sodipodi:rx="1.3229166"
       sodipodi:ry="1.3229166"
       sodipodi:start="0"
       sodipodi:end="3.329353"
       d="m 472.5958,94.594261 a 1.3229166,1.3229166 0 0 1 -0.73441,1.184808 1.3229166,1.3229166 0 0 1 -1.38782,-0.130673 1.3229166,1.3229166 0 0 1 -0.50035,-1.301069"
       sodipodi:open="true"
       transform="rotate(23.678131)" />
    <path
       inkscape:connector-curvature="0"
       id="path1312"
       d="M395.305076455 268.51039362C395.452786455 270.13995362 393.9722638 268.121509804 392.8843438 268.846789804C392.8366438 268.878589804 393.905327977 271.522971793 393.905327977 271.606531793C393.905327977 271.682431793 394.813152631 269.138620425 394.813152631 269.512120425C394.813152631 269.779960425 392.378782397 269.151994444 392.158332397 269.317324444C392.060932397 269.390424444 393.06880586 272.093467827 393.15490586 272.179567827C393.33180586 272.356467827 391.730754448 273.223224688 391.858874448 273.479504688C391.937374448 273.636584688 392.411859311 274.266734812 392.577209311 274.432124812C392.668109311 274.523124812 397.567027012 270.735456506 397.660347012 270.716856506C398.001507012 270.648656506 396.404223008 274.112731891 396.805353008 274.313301891C396.863853008 274.342501891 398.067510355 273.343842684 398.067510355 273.546352684C398.067510355 273.811852684 396.467703592 275.501002628 396.586503592 275.263532628C396.779293592 274.877952628 397.315334996 275.311960307 397.443964996 274.900350307C397.628244996 274.310650307 397.285351141 270.816448503 397.523791141 270.244188503C397.597091141 270.068378503 400.419520787 273.062969642 400.633900787 272.991509642C400.714200787 272.964709642 398.414346982 272.003944412 398.448886982 272.081644412C398.696856982 272.639564412 399.990715516 271.609864751 400.367195516 272.093914751C400.575495516 272.361724751 401.008383197 272.846583721 401.176353197 273.014603721C401.216053197 273.054403721 401.28100157 273.283782521 401.30610157 273.233502521C401.54701157 272.751682521 401.059224411 273.568697181 400.846554411 273.037017181C400.694364411 272.656527181 400.852820947 269.872573757 401.007970947 269.872573757C401.016970947 269.872573757 400.325240639 270.031808732 400.282700639 269.999908732C399.752810639 269.602488732 398.157909203 273.925402801 398.014919203 273.639422801C397.876309203 273.362212801 398.519676745 272.341772101 398.816266745 272.099112101C398.930106745 272.006012101 403.710151202 265.643398027 403.565071202 265.667578027C403.068861202 265.750278027 397.843886194 271.335730421 397.371236194 271.504530421C397.041276194 271.622370421 398.585625488 270.313732258 398.607505488 270.237162258C398.701505488 269.908182258 399.553467746 268.449856673 399.666197746 268.223526673C399.900247746 267.755426673 398.993288596 268.401080382 399.242878596 267.818710382C399.422518596 267.399540382 401.875994822 268.229876415 402.052454822 267.806366415C402.069454822 267.765566415 397.302128516 267.875717962 397.209028516 267.782627962C397.154328516 267.727927962 400.728589423 266.070708963 400.583149423 265.973758963C400.278719423 265.770808963 398.454058847 265.827929515 398.089068847 265.645429515C397.814048847 265.507919515 394.39645572 267.084868483 394.13861572 267.374928483C394.02143572 267.506758483 396.220596485 266.526612918 396.118076485 266.670142918C396.065276485 266.744142918 396.866100637 269.550056616 396.790480637 269.499626616C396.612950637 269.381276616 396.364566409 267.393619729 396.115186409 267.532759729C395.903176409 267.651039729 394.160674496 270.119325203 393.959824496 270.255685203"
       style="fill:none;fill-rule:evenodd;stroke:#b8b800;stroke-width:0.26458332px;stroke-linecap:butt;stroke-linejoin:miter;stroke-opacity:1" />
    <path
       inkscape:connector-curvature="0"
       id="path1314"
       d="M397.994930742 270.871106235C397.672430742 271.084476235 397.87741008 272.952451179 397.53613008 273.134281179C397.37045008 273.222581179 395.30160017 271.847930878 395.12109017 271.899730878C394.21158017 272.159590878 394.250377942 272.121054113 393.380727942 272.487224113C393.106127942 272.602844113 389.936292938 272.427684632 389.671412938 272.586614632C389.585812938 272.638014632 390.455136127 273.917467087 390.544426127 273.962117087C390.893716127 274.136767087 393.137235904 272.677539958 393.554865904 272.520929958C393.824045904 272.419989958 396.406074795 272.930577491 396.512834795 273.197527491C396.685754795 273.629837491 397.291849177 273.647157022 397.363049177 274.145797022C397.563979177 275.552317022 393.587258106 272.694634045 393.724578106 274.068834045C393.726578106 274.088534045 396.035851397 273.054151228 396.207051397 272.882941228C396.830061397 272.259931228 393.960522106 274.598895923 394.526262106 273.907435923C394.603362106 273.813235923 398.389297595 271.395214561 398.493717595 271.457854561C398.962257595 271.738984561 400.345187362 275.729219095 400.608317362 276.233999095C400.786437362 276.575389095 398.172940559 273.272433646 398.371050559 273.602623646C398.450250559 273.734643646 398.549747237 273.171214599 398.709767237 273.117874599C398.860027237 273.067774599 399.779949239 275.730700157 399.791149239 275.646350157C399.877849239 274.995690157 396.83583441 276.159995695 396.72530441 275.496605695C396.66590441 275.140115695 401.001621379 269.804856163 401.001621379 269.441656163C401.001621379 269.410456163 396.990793317 270.305409817 397.001693317 270.334609817C397.035093317 270.423609817 397.178778785 276.350939724 397.221668785 276.403739724C397.523448785 276.775149724 398.432954887 273.406350983 398.870854887 273.607060983C398.901954887 273.621360983 401.477432585 272.584434479 401.545482585 272.380294479C402.040582585 270.894984479 396.803967765 272.788434007 396.633627765 272.107094007C396.517777765 271.643674007 404.02962146 267.655603037 404.42667146 267.481893037C404.75129146 267.339873037 402.535653918 270.891586349 402.500603918 270.786426349C402.497603918 270.778426349 403.594324363 268.557132212 403.403314363 268.604882212C403.265124363 268.639382212 402.708605052 267.176836536 402.526045052 267.085556536C402.417635052 267.031356536 400.966848873 265.68505007 400.854348873 265.62875007C400.440818873 265.42198007 397.045258842 269.719296452 396.792968842 269.467006452C396.509908842 269.183946452 396.891133343 265.683665987 396.870053343 265.683665987C396.577803343 265.683665987 397.467573266 265.88878836 397.299473266 266.15294836C397.266173266 266.20534836 398.08308853 270.10670746 398.07490853 270.09036746C398.04090853 270.02236746 396.081274738 266.93240218 395.696924738 267.44485218C395.567184738 267.61785218 393.154603229 269.904783661 393.230473229 270.081873661C393.276273229 270.188873661 394.480563975 271.859142861 394.569933975 271.948502861C394.615433975 271.994002861 395.388214767 265.377679285 395.323934767 265.377679285C395.156614767 265.377679285 393.339456113 267.573498108 393.187296113 267.516398108C393.125396113 267.493198108 395.448874291 268.056377788 395.389654291 268.026797788C395.229564291 267.946697788 394.493115646 267.063088799 394.580545646 267.259848799C394.655445646 267.428448799 396.770994924 268.773427096 396.898734924 268.875627096C397.037544924 268.986677096 395.424255581 268.058078138 395.565455581 268.166058138C396.218335581 268.665318138 396.526852272 271.010129115 397.137382272 271.545959115C397.172782272 271.862619115 395.717378186 273.356548963 395.862838186 273.465638963C395.890738186 273.486538963 395.740800249 269.686557812 395.713300249 269.665117812C395.433860249 269.447847812 394.335265273 268.593788289 394.065325273 268.364828289"
       style="fill:none;fill-rule:evenodd;stroke:#f1f100;stroke-width:0.26499999;stroke-linecap:butt;stroke-linejoin:miter;stroke-miterlimit:4;stroke-dasharray:none;stroke-opacity:1" />
    <ellipse
       ry="18.381771"
       rx="18.795773"
       cy="270.54166"
       cx="449.79163"
       id="ellipse1452"
       style="color:#000000;clip-rule:nonzero;display:inline;overflow:visible;visibility:visible;opacity:1;isolation:auto;mix-blend-mode:normal;color-interpolation:sRGB;color-interpolation-filters:linearRGB;solid-color:#000000;solid-opacity:1;vector-effect:none;fill:url(#radialGradient1462);fill-opacity:1;fill-rule:evenodd;stroke:none;stroke-width:0.46912953;stroke-linecap:butt;stroke-linejoin:bevel;stroke-miterlimit:4;stroke-dasharray:none;stroke-dashoffset:0;stroke-opacity:1;paint-order:normal;color-rendering:auto;image-rendering:auto;shape-rendering:auto;text-rendering:auto;enable-background:accumulate" />
    <path
       transform="rotate(-140.89269)"
       d="m -519.26345,82.30468 a 1.3229166,1.3229166 0 0 1 -1.16558,1.313528 1.3229166,1.3229166 0 0 1 -1.44283,-1.001099"
       sodipodi:open="true"
       sodipodi:end="2.9031734"
       sodipodi:start="0"
       sodipodi:ry="1.3229166"
       sodipodi:rx="1.3229166"
       sodipodi:cy="82.30468"
       sodipodi:cx="-520.58636"
       sodipodi:type="arc"
       style="color:#000000;clip-rule:nonzero;display:inline;overflow:visible;visibility:visible;opacity:0.15;isolation:auto;mix-blend-mode:normal;color-interpolation:sRGB;color-interpolation-filters:linearRGB;solid-color:#000000;solid-opacity:1;vector-effect:none;fill:url(#radialGradient1464);fill-opacity:1;fill-rule:evenodd;stroke:none;stroke-width:0.75406247;stroke-linecap:butt;stroke-linejoin:bevel;stroke-miterlimit:4;stroke-dasharray:none;stroke-dashoffset:0;stroke-opacity:1;paint-order:markers fill stroke;color-rendering:auto;image-rendering:auto;shape-rendering:auto;text-rendering:auto;enable-background:accumulate"
       id="path1454" />
    <path
       transform="rotate(23.678131)"
       sodipodi:open="true"
       d="m 520.89451,76.581062 a 1.3229166,1.3229166 0 0 1 -0.73441,1.184808 1.3229166,1.3229166 0 0 1 -1.38782,-0.130673 1.3229166,1.3229166 0 0 1 -0.50035,-1.301069"
       sodipodi:end="3.329353"
       sodipodi:start="0"
       sodipodi:ry="1.3229166"
       sodipodi:rx="1.3229166"
       sodipodi:cy="76.581062"
       sodipodi:cx="519.57159"
       sodipodi:type="arc"
       id="path1456"
       style="color:#000000;clip-rule:nonzero;display:inline;overflow:visible;visibility:visible;opacity:0.15;isolation:auto;mix-blend-mode:normal;color-interpolation:sRGB;color-interpolation-filters:linearRGB;solid-color:#000000;solid-opacity:1;vector-effect:none;fill:url(#radialGradient1466);fill-opacity:1;fill-rule:evenodd;stroke:none;stroke-width:0.75406247;stroke-linecap:butt;stroke-linejoin:bevel;stroke-miterlimit:4;stroke-dasharray:none;stroke-dashoffset:0;stroke-opacity:1;paint-order:markers fill stroke;color-rendering:auto;image-rendering:auto;shape-rendering:auto;text-rendering:auto;enable-background:accumulate" />
    <path
       style="fill:none;fill-rule:evenodd;stroke:#b8b800;stroke-width:0.26458332px;stroke-linecap:butt;stroke-linejoin:miter;stroke-opacity:1;opacity:0.527"
       d="M447.125473795 266.614791959C447.273183795 268.244351959 448.34950919 271.08161035 447.26158919 271.80689035C447.21388919 271.83869035 444.108169196 269.774717982 444.108169196 269.858277982C444.108169196 269.934177982 446.728742423 267.353740136 446.728742423 267.727240136C446.728742423 267.995080136 445.242233721 267.62153312 445.021783721 267.78686312C444.924383721 267.85996312 447.900201818 273.365083864 447.986301818 273.451183864C448.163201818 273.628083864 444.337310698 272.487169633 444.465430698 272.743449633C444.543930698 272.900529633 443.773635786 274.58954237 443.938985786 274.75493237C444.029885786 274.84593237 449.648515657 272.238645806 449.741835657 272.220045806C450.082995657 272.151845806 450.391256425 276.872442463 450.792386425 277.073012463C450.850886425 277.102212463 452.745187853 274.937897026 452.745187853 275.140407026C452.745187853 275.405907026 447.700116106 278.038209276 447.818916106 277.800739276C448.011706106 277.415159276 452.083765083 273.987724627 452.212395083 273.576144627C452.396675083 272.986444627 447.651966214 271.137678768 447.890376214 270.565418768C447.963676214 270.389608768 454.850695171 275.049704458 455.065075171 274.978244458C455.145375171 274.951444458 450.0613828 269.783682076 450.0959228 269.861382076C450.3438928 270.419302076 453.538006122 272.379949423 453.914486122 272.864029423C454.122786122 273.131839423 456.236937065 275.818287072 456.404907065 275.986307072C456.444607065 276.026107072 451.591448263 275.852747953 451.616548263 275.802467953C451.857458263 275.320647953 454.274697379 272.774457684 454.062027379 272.242777684C453.909837379 271.862287684 450.814599638 268.500747867 450.970019638 268.500747867C450.979019638 268.500747867 451.046001183 271.884852817 451.003461183 271.852952817C450.473571183 271.455532817 451.411638318 276.019173596 451.268648318 275.733193596C451.130038318 275.455983596 454.356316024 271.79902832 454.652906024 271.55636832C454.766746024 271.46326832 458.196611428 265.10896522 458.051531428 265.13314522C457.555321428 265.21584522 452.37000656 274.188859792 451.89735656 274.357659792C451.56739656 274.475499792 448.870572461 270.424494258 448.892452461 270.347924258C448.986452461 270.018944258 450.444984076 266.145985384 450.557714076 265.919655384C450.791764076 265.451555384 453.131914491 267.908719939 453.381504491 267.326349939C453.561144491 266.907179939 455.459865899 270.649916538 455.636325899 270.226446538C455.653325899 270.185646538 450.543265386 269.377369475 450.450165386 269.284369475C450.395465386 269.229669475 452.724200277 263.579308955 452.578760277 263.482358955C452.274330277 263.279408955 449.452263982 263.415491051 449.087273982 263.232991051C448.812253982 263.095481051 448.683757345 269.354803492 448.425917345 269.644863492C448.308737345 269.776693492 448.770482172 268.535193008 448.667962172 268.678723008C448.615162172 268.752723008 450.336441441 266.764558593 450.260821441 266.714128593C450.083291441 266.595778593 449.029828943 268.824652959 448.780448943 268.963792959C448.568438943 269.082072959 448.671524653 268.266788581 448.470674653 268.403148581"
       id="path1458"
       inkscape:connector-curvature="0" />
    <path
       style="fill:none;fill-rule:evenodd;stroke:#f1f100;stroke-width:0.26499999;stroke-linecap:butt;stroke-linejoin:miter;stroke-miterlimit:4;stroke-dasharray:none;stroke-opacity:1;opacity:0.527"
       d="M450.221298164 268.872258462C449.898798164 269.085628462 448.848799563 275.626424382 448.507519563 275.808254382C448.341839563 275.896554382 448.489978704 268.960773509 448.309468704 269.012573509C447.399958704 269.272433509 449.236006792 272.823495641 448.366356792 273.189665641C448.091756792 273.305285641 445.582165006 271.98114431 445.317285006 272.14004431C445.231685006 272.19144431 444.987320556 272.551595685 445.076610556 272.596245685C445.425900556 272.770895685 446.391009052 273.648142854 446.808639052 273.491532854C447.077819052 273.390592854 448.213712778 275.912718099 448.320472778 276.179668099C448.493392778 276.611978099 448.61520262 272.213545581 448.68640262 272.712185581C448.88733262 274.118705581 443.869033516 275.210709859 444.006353516 276.584879859C444.008353516 276.604579859 450.659655355 272.614243143 450.830855355 272.443033143C451.453865355 271.820023143 447.586250463 276.554593009 448.151990463 275.863133009C448.229090463 275.768933009 450.618026431 270.364397594 450.722446431 270.427037594C451.190986431 270.708167594 451.631442782 273.018609613 451.894572782 273.523389613C452.072692782 273.864779613 450.198482981 275.78287746 450.396592981 276.11306746C450.475792981 276.24508746 453.858524085 271.583170179 454.018544085 271.529830179C454.168804085 271.479730179 453.671992409 278.526179879 453.683192409 278.441829879C453.769892409 277.791169879 448.073767564 273.459498374 447.963237564 272.796108374C447.903837564 272.439618374 454.012404462 271.668664087 454.012404462 271.305464087C454.012404462 271.274264087 447.823231764 268.411406311 447.834131764 268.440606311C447.867531764 268.529606311 450.851352079 278.390707541 450.894242079 278.443507541C451.196022079 278.814917541 451.107029689 275.894629547 451.544929689 276.095339547C451.576029689 276.109639547 452.528750699 275.180942034 452.596800699 274.976802034C453.091900699 273.491492034 447.104082584 272.888267747 446.933742584 272.206927747C446.817892584 271.743507747 458.006340723 265.06981482 458.403390723 264.89610482C458.728010723 264.75408482 457.715436005 271.221102096 457.680386005 271.115942096C457.677386005 271.107942096 455.925992668 271.143269885 455.734982668 271.191019885C455.596792668 271.225519885 456.260429739 267.832689098 456.077869739 267.741409098C455.969459739 267.687209098 455.251311724 268.438279254 455.138811724 268.381979254C454.725281724 268.175209254 447.333103235 267.135101804 447.080813235 266.882811804C446.797753235 266.599751804 448.172333739 267.283012086 448.151233739 267.283012086C447.858983739 267.283012086 452.601435307 264.932569757 452.433335307 265.196729757C452.400035307 265.249129757 451.885538407 268.828898159 451.877358407 268.812558159C451.843358407 268.744558159 448.648462403 266.168149023 448.264112403 266.680599023C448.134372403 266.853599023 446.821884666 271.66151406 446.897754666 271.83860406C446.943554666 271.94560406 445.354594791 270.701937656 445.443964791 270.791297656C445.489464791 270.836797656 445.922103691 264.019432421 445.857823691 264.019432421C445.690503691 264.019432421 443.366490764 265.676783287 443.214330764 265.619683287C443.152430764 265.596483287 451.32215806 267.643528447 451.26293806 267.613948447C451.10284806 267.533848447 447.214871811 265.540075112 447.302301811 265.736835112C447.377201811 265.905435112 451.132980851 269.219220992 451.260720851 269.321420992C451.399530851 269.432470992 446.100883355 265.569599019 446.242083355 265.677579019C446.894963355 266.176839019 447.782343823 272.783479335 448.392873823 273.319309335C448.428273823 273.635969335 450.274887374 271.044674 450.420347374 271.153764C450.448247374 271.174664 448.276354017 268.759922923 448.248854017 268.738482923C447.969414017 268.521212923 444.44616909 271.274821431 444.17622909 271.045861431"
       id="path1460"
       inkscape:connector-curvature="0" />
    <ellipse
       style="color:#000000;clip-rule:nonzero;display:inline;overflow:visible;visibility:visible;opacity:1;isolation:auto;mix-blend-mode:normal;color-interpolation:sRGB;color-interpolation-filters:linearRGB;solid-color:#000000;solid-opacity:1;vector-effect:none;fill:url(#radialGradient2220);fill-opacity:1;fill-rule:evenodd;stroke:none;stroke-width:0.52749962;stroke-linecap:butt;stroke-linejoin:bevel;stroke-miterlimit:4;stroke-dasharray:none;stroke-dashoffset:0;stroke-opacity:1;paint-order:normal;color-rendering:auto;image-rendering:auto;shape-rendering:auto;text-rendering:auto;enable-background:accumulate"
       id="ellipse2210"
       cx="502.70828"
       cy="270.54166"
       rx="21.13438"
       ry="20.668869" />
    <path
       id="path2212"
       style="color:#000000;clip-rule:nonzero;display:inline;overflow:visible;visibility:visible;opacity:0.073;isolation:auto;mix-blend-mode:normal;color-interpolation:sRGB;color-interpolation-filters:linearRGB;solid-color:#000000;solid-opacity:1;vector-effect:none;fill:url(#radialGradient2222);fill-opacity:1;fill-rule:evenodd;stroke:none;stroke-width:1.50812495;stroke-linecap:butt;stroke-linejoin:bevel;stroke-miterlimit:4;stroke-dasharray:none;stroke-dashoffset:0;stroke-opacity:1;paint-order:markers fill stroke;color-rendering:auto;image-rendering:auto;shape-rendering:auto;text-rendering:auto;enable-background:accumulate"
       sodipodi:type="arc"
       sodipodi:cx="-561.22455"
       sodipodi:cy="119.11501"
       sodipodi:rx="2.6458333"
       sodipodi:ry="2.6458333"
       sodipodi:start="0"
       sodipodi:end="2.9031734"
       sodipodi:open="true"
       d="m -558.57872,119.11501 a 2.6458333,2.6458333 0 0 1 -2.33117,2.62706 2.6458333,2.6458333 0 0 1 -2.88565,-2.0022"
       transform="rotate(-140.89269)" />
    <path
       style="color:#000000;clip-rule:nonzero;display:inline;overflow:visible;visibility:visible;opacity:0.073;isolation:auto;mix-blend-mode:normal;color-interpolation:sRGB;color-interpolation-filters:linearRGB;solid-color:#000000;solid-opacity:1;vector-effect:none;fill:url(#radialGradient2224);fill-opacity:1;fill-rule:evenodd;stroke:none;stroke-width:1.50812495;stroke-linecap:butt;stroke-linejoin:bevel;stroke-miterlimit:4;stroke-dasharray:none;stroke-dashoffset:0;stroke-opacity:1;paint-order:markers fill stroke;color-rendering:auto;image-rendering:auto;shape-rendering:auto;text-rendering:auto;enable-background:accumulate"
       id="path2214"
       sodipodi:type="arc"
       sodipodi:cx="567.9762"
       sodipodi:cy="59.013535"
       sodipodi:rx="2.6458333"
       sodipodi:ry="2.6458333"
       sodipodi:start="0"
       sodipodi:end="3.329353"
       d="m 570.62203,59.013535 a 2.6458333,2.6458333 0 0 1 -1.46882,2.369615 2.6458333,2.6458333 0 0 1 -2.77565,-0.261346 2.6458333,2.6458333 0 0 1 -1.0007,-2.602138"
       sodipodi:open="true"
       transform="rotate(23.678131)" />
    <path
       inkscape:connector-curvature="0"
       id="path2216"
       d="M498.217016879 264.114278271C498.468036879 266.883578271 498.672268043 273.255487493 496.823428043 274.488047493C496.742328043 274.542047493 489.938326091 269.559202855 489.938326091 269.701212855C489.938326091 269.830192855 494.825900187 267.209938877 494.825900187 267.844678877C494.825900187 268.299848877 494.582961031 264.971838893 494.208321031 265.252768893C494.042801031 265.376998893 500.811774509 275.442826683 500.958094509 275.589146683C501.258724509 275.889776683 492.075303761 271.090080943 492.293033761 271.525610943C492.426443761 271.792560943 489.732168812 280.19483616 490.013168812 280.47590616C490.167648812 280.63055616 502.929547535 272.798035479 503.088137535 272.766425479C503.667917535 272.650525479 502.302515823 278.258874688 502.984205823 278.599724688C503.083605823 278.649324688 508.251394945 278.201885178 508.251394945 278.546035178C508.251394945 278.997235178 498.652057859 285.317469854 498.853947859 284.913909854C499.181577859 284.258649854 504.015084986 273.606483702 504.233674986 272.907033702C504.546844986 271.904883702 496.518488932 271.215156629 496.923638932 270.242646629C497.048208932 269.943876629 508.106026326 276.810262008 508.470356326 276.688822008C508.606816326 276.643322008 500.578219627 270.710260794 500.636919627 270.842300794C501.058329627 271.790440794 508.105998374 270.620140944 508.745798374 271.442800944C509.099788374 271.897920944 511.628629864 281.570870567 511.914079864 281.856400567C511.981579864 281.924000567 502.403158163 280.370795923 502.445808163 280.285345923C502.855218163 279.466535923 508.938108677 271.961268287 508.576688677 271.057718287C508.318058677 270.411108287 503.620585016 269.422185822 503.884705016 269.422185822C503.900005016 269.422185822 501.343936729 272.727608558 501.271576729 272.673398558C500.371076729 271.998008558 501.88978694 278.328585276 501.64678694 277.842585276C501.41122694 277.371485276 509.57398972 270.702338346 510.07801972 270.289958346C510.27147972 270.131748346 517.923956374 262.074740756 517.677406374 262.115830756C516.834136374 262.256370756 509.051647138 278.376482759 508.248417138 278.663342759C507.687677138 278.863602759 499.891908874 272.810802483 499.929088874 272.680682483C500.088838874 272.121602483 501.145572038 263.591955882 501.337152038 263.207325882C501.734902038 262.411835882 507.855493803 264.817188435 508.279643803 263.827498435C508.584933803 263.115158435 512.563863749 271.9812492 512.863743749 271.2615992C512.892643749 271.1922992 501.031323366 265.410268852 500.873113366 265.252218852C500.780113366 265.159218852 506.299697703 259.124854504 506.052527703 258.960094504C505.535177703 258.615194504 501.334507525 255.928748093 500.714237525 255.618648093C500.246867525 255.384958093 500.893993416 270.33024255 500.455813416 270.82317255C500.256683416 271.04721255 501.629300032 264.577998104 501.455080032 264.821918104C501.365380032 264.947668104 505.746297778 262.034016891 505.617787778 261.948316891C505.316087778 261.747196891 503.018841901 269.721598501 502.595041901 269.958058501C502.234741901 270.159068501 500.383920439 268.978187933 500.042590439 269.209927933"
       style="opacity:0.29300005;fill:none;fill-rule:evenodd;stroke:#b8b800;stroke-width:0.231;stroke-linecap:butt;stroke-linejoin:miter;stroke-opacity:1;stroke-miterlimit:4;stroke-dasharray:none" />
    <path
       inkscape:connector-curvature="0"
       id="path2218"
       d="M503.457144388 266.674020409C502.909074388 267.036620409 499.356456198 278.144494585 498.776476198 278.453504585C498.494916198 278.603564585 500.3803315 266.155038399 500.0734615 266.243068399C498.5278215 266.684678399 499.848790383 275.075096215 498.370920383 275.697376215C497.904260383 275.893866215 497.039728498 273.154497997 496.589588498 273.424537997C496.444118498 273.511937997 493.809506639 272.261955521 493.961246639 272.337835521C494.554836639 272.634635521 494.270047699 273.438173781 494.979767699 273.172033781C495.437217699 273.000493781 500.951574807 281.11151351 501.133004807 281.56517351C501.426864807 282.29984351 497.62747332 271.451946173 497.74847332 272.299346173C498.08993332 274.689616173 493.243159258 275.790154282 493.476529258 278.125444282C493.479529258 278.158944282 502.240921586 276.148843304 502.531861586 275.857893304C503.590621586 274.799133304 499.91713522 282.873293952 500.87856522 281.698213952C501.00959522 281.538133952 501.901121357 268.898475354 502.078581357 269.004925354C502.874821357 269.482685354 504.51789337 274.10589519 504.96506337 274.96372519C505.26776337 275.54389519 501.167453542 278.396055919 501.504123542 278.957195919C501.638713542 279.181545919 509.654472375 272.127072231 509.926412375 272.036422231C510.181772375 271.951322231 506.213025894 286.476763757 506.232055894 286.333423757C506.379395894 285.227673757 501.013435374 272.729771499 500.825605374 271.602391499C500.724655374 270.996561499 507.006208506 271.100737966 507.006208506 270.483507966C507.006208506 270.430507966 497.17553606 264.793309507 497.19405606 264.842929507C497.25085606 264.994179507 501.08191613 282.814713206 501.15480613 282.904443206C501.66765613 283.535623206 505.714971133 277.253663017 506.459141133 277.594763017C506.511941133 277.619063017 507.141736315 277.179886692 507.257376315 276.832966692C508.098756315 274.308796692 499.632999182 274.624647097 499.343519182 273.466757097C499.146639182 272.679217097 515.435993699 262.551364045 516.110753699 262.256154045C516.662413699 262.014804045 514.741117662 269.784571964 514.681557662 269.605861964C514.676557662 269.592261964 511.950345833 273.289467929 511.625745833 273.370697929C511.390895833 273.429297929 511.667957076 268.008732906 511.357707076 267.853612906C511.173477076 267.761512906 511.920073926 264.815653505 511.728883926 264.719973505C511.026123926 264.368583505 497.637182204 262.162449674 497.208442204 261.733699674C496.727402204 261.252659674 499.819192559 267.712005013 499.783332559 267.712005013C499.286672559 267.712005013 507.631317117 263.186333225 507.345647117 263.635253225C507.289047117 263.724353225 502.935753699 267.259448564 502.921853699 267.231678564C502.864053699 267.116118564 501.953919057 264.932319668 501.300749057 265.803189668C501.080269057 266.097189668 497.030921997 273.809746456 497.159861997 274.110696456C497.237661997 274.292536456 494.669696007 273.029185531 494.821576007 273.181045531C494.898876007 273.258345531 492.922175742 261.303675832 492.812935742 261.303675832C492.528585742 261.303675832 490.572419298 264.837394967 490.313839298 264.740354967C490.208649298 264.700954967 507.212292891 264.772908317 507.111662891 264.722638317C506.839592891 264.586518317 497.181459025 261.849250178 497.330039025 262.183620178C497.457329025 262.470150178 503.372502034 268.34143326 503.589582034 268.51511326C503.825482034 268.70383326 494.792220989 259.796798134 495.032180989 259.980308134C496.141700989 260.828758134 497.085299466 272.303821208 498.122849466 273.214421208C498.183049466 273.752561208 504.600359647 269.418788768 504.847559647 269.604178768C504.894959647 269.639678768 501.988436256 266.52579576 501.941706256 266.48935576C501.466816256 266.12012576 494.170999344 273.680371585 493.712259344 273.291271585"
       style="opacity:0.29300005;fill:none;fill-rule:evenodd;stroke:#f1f100;stroke-width:0.231;stroke-linecap:butt;stroke-linejoin:miter;stroke-miterlimit:4;stroke-dasharray:none;stroke-opacity:1" />
  </g>
</svg>
